<?xml version="1.0" encoding="UTF-8" standalone="no"?>
<svg
   xmlns:dc="http://purl.org/dc/elements/1.1/"
   xmlns:cc="http://creativecommons.org/ns#"
   xmlns:rdf="http://www.w3.org/1999/02/22-rdf-syntax-ns#"
   xmlns:svg="http://www.w3.org/2000/svg"
   xmlns="http://www.w3.org/2000/svg"
   xmlns:sodipodi="http://sodipodi.sourceforge.net/DTD/sodipodi-0.dtd"
   xmlns:inkscape="http://www.inkscape.org/namespaces/inkscape"
   width="639.53363"
   height="1233.2344"
   id="svg2"
   sodipodi:version="0.32"
   inkscape:version="0.48.5 r10040"
   sodipodi:docname="1975.svg"
   inkscape:output_extension="org.inkscape.output.svg.inkscape"
   version="1.0">
  <metadata
     id="metadata669">
    <rdf:RDF>
      <cc:Work
         rdf:about="">
        <dc:format>image/svg+xml</dc:format>
        <dc:type
           rdf:resource="http://purl.org/dc/dcmitype/StillImage" />
      </cc:Work>
    </rdf:RDF>
  </metadata>
  <defs
     id="defs667">
    <inkscape:perspective
       sodipodi:type="inkscape:persp3d"
       inkscape:vp_x="0 : 491 : 1"
       inkscape:vp_y="0 : 1000 : 0"
       inkscape:vp_z="690 : 491 : 1"
       inkscape:persp3d-origin="345 : 327.33333 : 1"
       id="perspective671" />
  </defs>
  <sodipodi:namedview
     inkscape:window-height="1358"
     inkscape:window-width="1522"
     inkscape:pageshadow="2"
     inkscape:pageopacity="0.0"
     guidetolerance="10.0"
     gridtolerance="10.0"
     objecttolerance="10"
     borderopacity="1.0"
     bordercolor="#666666"
     pagecolor="#ffffff"
     id="base"
     showgrid="false"
     inkscape:zoom="1.131371"
     inkscape:cx="303.21854"
     inkscape:cy="466.78174"
     inkscape:window-x="1018"
     inkscape:window-y="0"
     inkscape:current-layer="svg2"
     inkscape:object-nodes="true"
     showguides="true"
     inkscape:guide-bbox="true"
     inkscape:window-maximized="0" />
  <style
     type="text/css"
     id="style1">
		.beds		{ fill: #00F; }
		.berks		{ fill: #66F; }
		.birm		{ fill: #800; }
		.bristol	{ fill: #800; }
		.bucks		{ fill: #090; }
		.cambs		{ fill: #800; }
		.cheshire	{ fill: #00F; }
		.clwyd		{ fill: #66F; }
		.cornwall	{ fill: #FF0; }
		.cumbria	{ fill: #090; }
		.derbys		{ fill: #FF0; }
		.devon		{ fill: #090; }
		.dorset		{ fill: #66F; }
		.durcle		{ fill: #00F; }
		.dyfed		{ fill: #F90; }
		.edinb		{ fill: #090; }
		.essex		{ fill: #66F; }
		.glasgow	{ fill: #800; }
		.gloucs		{ fill: #FF0; }
		.gwynned	{ fill: #800; }
		.hants		{ fill: #F44; }
		.hereworcs	{ fill: #66F; }
		.herts		{ fill: #FF0; }
		.humbs		{ fill: #FF0; }
		.kent		{ fill: #090; }
		.lancs		{ fill: #800; }
		.leics		{ fill: #00F; }
		.lincs		{ fill: #F44; }
		.london		{ fill: #00F; }
		.manch		{ fill: #66F; }
		.mersey		{ fill: #FF0; }
		.mglamgwent	{ fill: #F00; }
		.newc		{ fill: #FF0; }
		.nirel		{ fill: #090; }
		.norfolk	{ fill: #090; }
		.northants	{ fill: #FF0; }
		.northumb	{ fill: #800; }
		.notts		{ fill: #66F; }
		.nyorks		{ fill: #66F; }
		.oxon		{ fill: #800; }
		.powys		{ fill: #090; }
		.scot1		{ fill: #FF0; }
		.scot2		{ fill: #66F; }
		.scot3		{ fill: #00F; }
		.sglam		{ fill: #FF0; }
		.shrops		{ fill: #FF0; }
		.somerset	{ fill: #F90; }
		.staffs		{ fill: #090; }
		.suffolk	{ fill: #F44; }
		.surrey		{ fill: #FF0; }
		.sussexe	{ fill: #F00; }
		.sussexw	{ fill: #800; }
		.syorks		{ fill: #800; }
		.warks		{ fill: #F00; }
		.wglam		{ fill: #00F; }
		.wilts		{ fill: #00F; }
		.wyorks		{ fill: #090; }
		.l		{ stroke: black; stroke-width: 0.2; }
	</style>
  <path
     class="nirel l"
     d="M 168.38362,721.5625 173.82112,736.0625 168.94612,751.8125 164.32112,742.6875 167.94612,735.0625 161.44612,725.5625 156.44612,728.9375 161.57112,735.0625 158.94612,745.8125 163.57112,745.8125 167.44612,752.8125 162.32112,760.1875 147.44612,760.5625 143.94612,773.1875 133.94612,783.4375 118.69612,773.6875 97.071122,782.3125 82.086882,749.12697 101.17877,728.26732 115.69612,732.4375 122.07112,722.0625 118.07112,719.8125 124.32112,709.1875 110.57112,709.4375 109.66405,700.69015 101.17877,728.26732 82.086882,749.12697 72.540942,738.52036 55.923936,770.69372 23.750577,760.44067 0.0625,731.4493 15.08852,722.96401 33.296519,741.70235 23.043471,720.48915 32.589412,716.60005 20.39182,712.26903 19.154383,704.04891 41.516635,701.39726 50.620635,680.18406 55.216829,669.75423 68.298304,669.57745 81.026222,656.67275 106.48207,652.60689 132.57112,653.4375 140.32112,671.4375 157.15691,697.23775 158.1333,705.46263 145.32112,713.6875 146.32112,717.5 147.82112,718.0625 154.94612,713.375 165.07112,713.75 z"
     id="Northern Ireland" />
  <path
     d="M 170.57726,1218.4173 176.85176,1221.2886 167.09871,1233.1719 160.11051,1231.8704 158.37231,1220.694 145.99274,1214.114 133.80187,1224.4921 127.37205,1217.1207 133.5289,1207.1554 153.85822,1202.736 162.52028,1197.2559 170.57112,1184.5625 178.57112,1171.0625 205.32112,1152.6875 214.19612,1129.1875 229.19612,1164.8125 236.05939,1174.4517 235.1755,1195.4881 200.35049,1194.6042 188.63174,1204.7604 177.19275,1213.8729 z"
     id="Cornwall"
     class="cornwall l" />
  <path
     class="somerset l"
     d="M 271.23795,1096.3164 321.44612,1099.1875 320.69612,1088.6875 341.94612,1089.3125 356.69612,1094.3125 371.19612,1088.5625 367.19612,1115.4375 360.94612,1128.0625 354.82112,1124.4375 345.94612,1136.3125 323.94612,1142.5625 315.07112,1133.8125 279.54645,1122.8329 271.06117,1103.0339 z"
     id="Somerset" />
  <path
     class="devon l"
     d="M 287.32112,1159.3125 289.19612,1167.5625 284.44612,1175.9375 284.44612,1188.4375 272.44612,1209.1875 258.51003,1201.7637 241.62785,1196.2836 238.44612,1191.9375 237.00862,1188.9375 236.82112,1184.6875 236.05939,1174.4517 229.19612,1164.8125 214.19612,1129.1875 215.55329,1118.5903 238.88781,1118.5903 237.12005,1101.0894 271.23795,1096.3164 271.06117,1103.0339 279.54645,1122.8329 315.07112,1133.8125 323.94612,1142.5625 324.19612,1154.5625 311.28987,1157.875 291.82112,1165.4375 289.32112,1157.5625 z"
     id="Devon" />
  <path
     class="dorset l"
     d="M 323.94612,1142.5625 345.94612,1136.3125 354.82112,1124.4375 360.94612,1128.0625 367.19612,1115.4375 377.19612,1120.8125 382.19612,1129.9375 392.94612,1125.3125 411.44612,1152.625 407.32112,1154.5625 400.88362,1154.75 396.50862,1156.1875 393.94612,1158.625 390.25862,1152.6875 383.57112,1158.0625 394.19612,1160.0625 390.32112,1170.8125 361.32112,1164.0625 358.07112,1177.4375 354.57112,1166.8125 324.19612,1154.5625 z"
     id="Dorset" />
  <path
     class="bristol l"
     d="M 347.7986,1058.2648 352.82112,1050 363.00862,1054.1875 371.07112,1061.1875 369.63362,1077.125 370.57112,1080.6875 366.13362,1086.3125 371.19612,1088.5625 356.69612,1094.3125 341.94612,1089.3125 320.69612,1088.6875 326.94612,1080.3125 340.88362,1068.3125 343.82112,1064.5625 z"
     id="Avon" />
  <path
     class="hants l"
     d="M 418.69612,1160.6875 L 438.44612,1148.9375 L 454.82112,1157.4375 L 440.44612,1170.5625 L 418.69612,1160.6875 z"
     id="Isle of Wight" />
  <path
     class="sussexw l"
     d="M 468.94612,1116.8125 475.69612,1113.9375 484.32112,1114.0625 493.32112,1112.9375 498.69612,1111.3125 511.57112,1106.8125 514.19612,1102.8125 517.82112,1106.9375 523.69612,1107.3125 530.82112,1106.6875 526.75862,1122.0625 519.75862,1128.875 518.81371,1134.9421 515.05721,1136.6657 511.16812,1137.2844 513.33363,1141.4387 503.38994,1143.4716 492.25301,1144.7532 473.94612,1153.8125 465.07112,1147.5625 463.21744,1137.4612 z"
     id="West Sussex" />
  <path
     class="hants l"
     d="M 423.19612,1150.6875 437.14288,1144.2671 427.59694,1134.3234 433.75862,1137.0469 437.40804,1140.3338 442.35779,1143.6926 449.38466,1148.5097 451.01985,1139.0964 452.876,1144.3555 451.55018,1147.0955 456.7209,1147.9794 456.10218,1144.4439 457.428,1139.7593 457.64897,1147.0513 463.5268,1147.8468 463.21744,1137.4612 468.94612,1116.8125 475.69612,1113.9375 471.52595,1096.7583 476.21053,1098.4377 473.82404,1086.8588 468.60913,1084.8259 463.92455,1083.5001 459.44612,1084.3125 450.19612,1083.4375 424.44612,1088.0625 411.19612,1100.5625 413.71997,1106.6578 416.28323,1128.6223 412.19612,1129.4375 400.69612,1122.8125 392.94612,1125.3125 406.41903,1145.0567 411.44612,1152.625 419.19612,1155.1875 z"
     id="Hampshire" />
  <path
     class="wilts l"
     d="M 382.19612,1129.9375 377.19612,1120.8125 367.19612,1115.4375 371.19612,1088.5625 366.13362,1086.3125 370.57112,1080.6875 369.63362,1077.125 371.07112,1061.1875 397.07112,1053.4375 413.14544,1049.3822 411.02412,1060.033 417.57112,1066.9375 424.44612,1088.0625 411.19612,1100.5625 413.71997,1106.6578 416.28323,1128.6223 412.19612,1129.4375 400.69612,1122.8125 392.94612,1125.3125 z"
     id="Wiltshire" />
  <path
     class="sussexe l"
     d="M 515.05721,1136.6657 518.81371,1134.9421 519.75862,1128.875 526.75862,1122.0625 530.82112,1106.6875 538.57112,1106.8125 555.57112,1112.9375 559.07112,1115.3125 569.69612,1119.6875 576.94612,1121.4375 581.57112,1121.3125 587.32112,1128.8125 563.32112,1138.1875 551.94612,1143.5 546.07112,1151.1875 538.88362,1148.25 530.52517,1145.8139 519.16726,1142.4551 517.57627,1141.9248 513.33363,1141.4387 511.16812,1137.2844 z"
     id="East Sussex" />
  <path
     class="kent l"
     d="M 581.57112,1121.3125 576.94612,1121.4375 569.69612,1119.6875 559.07112,1115.3125 555.57112,1112.9375 538.57112,1106.8125 530.82112,1106.6875 530.19612,1097.6875 529.94612,1090.1875 536.88362,1077.25 538.38362,1073.375 541.32112,1069.25 545.19612,1072.1875 547.88362,1071 552.13362,1073.1875 557.69612,1071.5 563.69612,1067.625 576.44612,1070.5625 562.83111,1076.1639 569.90218,1078.3736 577.41519,1071.5677 591.82249,1078.8155 600.82112,1078.5625 625.44612,1076.0625 623.19612,1092.6875 622.94612,1102.6875 610.44612,1109.1875 594.19612,1119.4375 596.07112,1129.6875 587.32112,1128.8125 z"
     id="Kent" />
  <path
     class="surrey l"
     d="M 509.85237,1081.2188 504.40641,1087.0356 504.91487,1079.75 499.85441,1078.0642 499.98699,1076.8268 495.03725,1073.1587 491.94365,1070.507 490.22008,1070.3744 490.70622,1075.3684 487.25907,1073.8658 484.43064,1080.4949 476.56408,1083.3233 473.82404,1086.8588 476.21053,1098.4377 471.52595,1096.7583 475.69612,1113.9375 484.32112,1114.0625 493.32112,1112.9375 498.69612,1111.3125 511.57112,1106.8125 514.19612,1102.8125 517.82112,1106.9375 523.69612,1107.3125 530.82112,1106.6875 529.94612,1090.1875 526.94612,1086.1875 524.32112,1085.3125 518.44612,1091.0625 516.13362,1087.3125 513.57112,1085.25 511.16487,1085.9688 z"
     id="Surrey" />
  <path
     class="gloucs l"
     d="M 356.90445,1019.0208 345.57112,1033.1875 344.90445,1057.0208 352.82112,1050 363.00862,1054.1875 371.07112,1061.1875 413.14544,1049.3822 412.74769,1016.1482 405.69612,1002.5625 400.69612,1013.8125 395.57112,1010.1875 378.44612,1014.4375 366.40445,1013.1875 z"
     id="Gloucestershire" />
  <path
     class="london l"
     d="M 528.82369,1054.9286 534.94612,1054 539.44612,1053.5 541.57112,1052.6875 547.47737,1059.75 548.78987,1062.4062 543.28987,1064.1875 540.69612,1068.2812 539.47737,1066.3672 536.02425,1065.5469 532.91487,1065.6719 530.83675,1067.5156 527.368,1067.0938 525.28987,1068.9062 524.368,1066.6719 522.39925,1066.3438 521.02425,1066.9219 518.60237,1066.5469 517.35237,1069.2031 516.118,1069.375 514.19221,1069.9296 512.91097,1071.3789 511.44529,1070.0703 510.743,1069.1094 509.84229,1069.0928 508.38389,1070.7722 506.35095,1069.4021 504.53987,1071.9375 506.35237,1070.4688 508.47737,1071.6562 510.47737,1069.9062 510.97737,1071.1562 513.10237,1072 515.38362,1070 517.75862,1069.4688 519.10237,1067.0312 521.57112,1067.875 523.91487,1067.375 524.00862,1068.4375 525.03987,1070.4375 526.94612,1068.2188 531.50862,1067.9375 532.72737,1066.4062 537.38362,1066.7188 538.60237,1069.0625 541.32112,1069.25 538.38362,1073.375 536.88362,1077.25 529.94612,1090.1875 526.94612,1086.1875 524.32112,1085.3125 518.44612,1091.0625 516.13362,1087.3125 513.57112,1085.25 511.16487,1085.9688 509.85237,1081.2188 504.40641,1087.0356 504.91487,1079.75 499.85441,1078.0642 499.98699,1076.8268 495.03725,1073.1587 491.94365,1070.507 492.96012,1069.0044 492.87173,1059.9446 491.98785,1057.5139 508.51647,1052.299 513.38362,1049.5312 514.69612,1047.1562 525.07112,1047.8125 525.07112,1051.5625 z"
     id="Greater London" />
  <path
     class="berks l"
     d="M 478.42024,1067.4134 482.44191,1068.4741 481.24866,1064.585 490.17589,1066.7505 490.26427,1068.5625 490.22008,1070.3744 490.70622,1075.3684 487.25907,1073.8658 484.43064,1080.4949 476.56408,1083.3233 473.82404,1086.8588 468.60913,1084.8259 463.92455,1083.5001 459.44612,1084.3125 450.19612,1083.4375 424.44612,1088.0625 417.57112,1066.9375 448.32112,1064.4375 451.32112,1070.1875 457.56059,1072.2748 460.65418,1069.6231 462.95228,1072.5399 465.33876,1063.0824 475.59181,1061.1378 z"
     id="Berkshire" />
  <path
     class="essex l"
     d="M 525.07112,1051.5625 525.07112,1047.8125 524.69612,1043.1875 526.44612,1038.6875 536.82112,1031.9375 533.92812,1024.987 529.95064,1011.6404 538.25915,1002.448 551.69418,1004.8345 562.03561,1004.2157 572.0235,1002.006 576.35453,1015.4411 596.77223,1015.883 604.90396,1016.5901 612.32858,1015.9714 612.32858,1025.6941 599.68905,1034.7097 587.49146,1035.4169 579.41503,1038.9956 589.07112,1038.1875 589.63362,1050.5625 575.13362,1051.125 585.07112,1053.1875 584.97737,1054.9062 591.19612,1052.0938 583.75001,1059.5288 579.94612,1063.4375 573.16487,1062.2812 568.89924,1062.0625 568.69612,1064.0938 564.00862,1065.2812 556.03987,1070.875 550.76253,1071.8945 548.48518,1069.7266 545.493,1071.0156 540.69612,1068.2812 543.28987,1064.1875 548.78987,1062.4062 547.47737,1059.75 541.57112,1052.6875 539.44612,1053.5 534.94612,1054 528.82369,1054.9286 z"
     id="Essex" />
  <path
     class="herts l"
     d="M 513.95235,1004.5693 529.95064,1011.6404 533.92812,1024.987 536.82112,1031.9375 526.44612,1038.6875 524.69612,1043.1875 525.07112,1047.8125 514.69612,1047.1562 513.38362,1049.5312 508.51647,1052.299 491.98785,1057.5139 485.82112,1040.9375 479.38362,1039.75 475.00862,1031.375 478.25862,1029.375 485.88362,1035 487.7894,1032.6768 493.35787,1029.9368 497.77728,1031.0858 500.25216,1032.4116 502.63864,1029.8484 498.83794,1022.7773 497.77728,1017.2972 505.37868,1013.3197 507.85356,1015.6178 z"
     id="Hertfordshire" />
  <path
     class="bucks l"
     d="M 480.9835,1017.2088 482.45074,994.91728 480.04658,992.79596 464.63165,1000.5741 468.59145,1005.9482 466.27112,1010.2875 455.27112,1005.8875 449.47112,1012.4875 454.47112,1031.4875 449.0753,1036.7427 463.65938,1042.7531 462.33356,1054.0668 465.33876,1063.0824 475.59181,1061.1378 478.42024,1067.4134 482.44191,1068.4741 481.24866,1064.585 490.17589,1066.7505 490.26427,1068.5625 490.22008,1070.3744 491.94365,1070.507 492.96012,1069.0044 492.87173,1059.9446 491.98785,1057.5139 485.82112,1040.9375 479.38362,1039.75 475.00862,1031.375 478.25862,1029.375 485.88362,1035 487.7894,1032.6768 477.53635,1024.3683 z"
     id="Buckinghamshire" />
  <path
     class="oxon l"
     d="M 449.47112,1012.4875 441.57997,1016.2719 434.93317,996.19008 421.85169,1015.2643 412.74769,1016.1482 413.14544,1049.3822 411.02412,1060.033 417.57112,1066.9375 448.32112,1064.4375 451.32112,1070.1875 457.56059,1072.2748 460.65418,1069.6231 462.95228,1072.5399 465.33876,1063.0824 462.33356,1054.0668 463.65938,1042.7531 449.0753,1036.7427 454.47112,1031.4875 z"
     id="Oxfordshire" />
  <path
     class="beds l"
     d="M 482.45074,994.91728 480.04658,992.79596 485.56201,985.51276 491.07745,978.22956 510.16933,996.04865 513.95235,1004.5693 507.85356,1015.6178 505.37868,1013.3197 497.77728,1017.2972 498.83794,1022.7773 502.63864,1029.8484 500.25216,1032.4116 497.77728,1031.0858 493.35787,1029.9368 487.7894,1032.6768 477.53635,1024.3683 480.9835,1017.2088 z"
     id="Bedfordshire" />
  <path
     class="suffolk l"
     d="M 606.26514,1007.8573 614.32616,1016.1305 631.1553,998.87708 639.47112,964.6875 639.37112,950.0875 631.57112,950.8875 634.87112,957.0875 618.87112,958.3875 613.77112,965.2875 596.17112,969.8875 592.7594,969.03718 587.80965,970.59281 569.99056,961.82469 551.32294,964.37027 551.69418,1004.8345 562.03561,1004.2157 572.0235,1002.006 576.35453,1015.4411 596.77223,1015.883 610.43707,1014.4334 602.37605,1006.7967 z"
     id="Suffolk" />
  <path
     class="norfolk l"
     d="M 592.7594,969.03718 587.80965,970.59281 569.99056,961.82469 551.32294,964.37027 539.01929,957.58205 533.92812,932.1262 542.13056,923.4995 555.14132,906.10467 573.17112,904.5875 608.07112,907.5875 633.77112,927.3875 638.37112,937.1875 639.37112,950.0875 631.57112,950.8875 634.87112,957.0875 618.87112,958.3875 613.77112,965.2875 596.17112,969.8875 z"
     id="Norfolk" />
  <path
     class="cambs l"
     d="M 491.07745,978.22956 495.88577,968.89575 499.70415,957.72347 489.66323,943.86417 499.42131,941.17717 504.79532,943.72275 533.92812,932.1262 539.01929,957.58205 551.32294,964.37027 551.49793,991.45699 551.69418,1004.8345 538.25915,1002.448 529.95064,1011.6404 513.95235,1004.5693 510.16933,996.04865 z"
     id="Cambridgeshire" />
  <path
     class="leics l"
     d="M 469.86424,958.14773 489.66323,943.86417 478.63237,931.27767 472.55125,910.913 468.02577,904.69046 453.38866,925.12584 438.68083,925.97437 438.04444,919.25686 433.60734,919.00937 416.90195,938.98514 420.08393,941.88428 419.65966,950.36956 425.59936,954.32935 434.93317,959.77408 443.84271,971.44134 458.19698,962.03682 465.76302,956.73352 z"
     id="Leicestershire" />
  <path
     class="lincs l"
     d="M 543.96903,880.22456 533.07959,853.63735 521.05877,846.14202 512.71491,855.90009 507.19948,851.51603 507.3409,842.18222 501.40121,837.65674 471.84414,847.69765 468.16719,855.19298 470.00566,872.16355 476.93531,877.25472 468.02577,904.69046 472.55125,910.913 478.63237,931.27767 489.66323,943.86417 499.42131,941.17717 504.79532,943.72275 533.92812,932.1262 542.13056,923.4995 524.45289,913.88285 543.26193,892.24538 z"
     id="Lincolnshire" />
  <path
     class="notts l"
     d="M 470.00566,872.16355 468.16719,855.19298 459.41674,850.15485 447.66109,860.67306 442.88812,871.10289 442.09263,884.97986 438.29193,887.27795 433.78412,896.29356 435.10995,904.51368 439.31723,917.27696 438.04444,919.25686 438.68083,925.97437 453.38866,925.12584 468.02577,904.69046 476.93531,877.25472 z"
     id="Nottinghamshire" />
  <path
     class="warks l"
     d="M 398.57112,974.6875 398.23779,980.35417 393.73779,992.85417 405.69612,1002.5625 412.74769,1016.1482 421.85169,1015.2643 434.93317,996.19008 441.43855,986.432 443.84271,971.44134 434.93317,959.77408 419.65966,950.36956 420.08393,941.88428 416.90195,938.98514 412.74769,949.76852 403.95305,950.38723 408.23989,957.41411 406.32112,958.6875 411.75862,966.875 416.82112,964.375 425.75862,964.4375 427.69612,970.375 425.90445,974.02083 416.57112,972.35417 413.57112,975.35417 z"
     id="Warwickshire" />
  <path
     class="mglamgwent l"
     d="M 344.90445,1057.0208 340.23779,1060.1875 325.44947,1066.3822 323.446,1063.0824 316.02138,1068.5035 313.0751,1063.5538 311.40445,1033.8542 319.23779,1026.5208 317.57112,1016.3542 345.57112,1033.1875 z"
     id="Gwent" />
  <path
     class="powys l"
     d="M 315.40445,1001.5208 325.90445,976.35417 307.23779,964.52083 321.57112,959.35417 320.73779,941.35417 322.90445,930.85417 311.57112,925.52083 291.57112,919.02083 262.07112,950.35417 277.07112,973.1875 272.07112,999.02083 278.73779,1008.8542 267.73779,1036.1875 282.07112,1039.6875 292.40445,1033.1875 301.40445,1036.5208 311.40445,1033.8542 319.23779,1026.5208 317.57112,1016.3542 z"
     id="Powys" />
  <path
     class="hereworcs l"
     d="M 325.90445,976.35417 348.18581,973.89055 365.07112,972.1875 370.23779,965.6875 379.23779,968.1875 383.57112,966.25 388.44612,967.375 390.63362,969.0625 387.69612,970.6875 390.13362,973.0625 395.69612,970.4375 398.69612,970.5625 400.32112,971.125 398.57112,974.6875 398.23779,980.35417 393.73779,992.85417 405.69612,1002.5625 400.69612,1013.8125 395.57112,1010.1875 378.44612,1014.4375 366.40445,1013.1875 356.90445,1019.0208 345.57112,1033.1875 317.57112,1016.3542 315.40445,1001.5208 z"
     id="Hereford and Worcester" />
  <path
     class="shrops l"
     d="M 370.23779,965.6875 369.40445,947.35417 374.56393,943.051 368.28836,938.98514 369.26063,933.947 362.45472,924.04751 365.28315,903.98335 360.86373,907.34211 341.59507,907.16533 337.70599,917.59516 321.61931,909.28665 311.57112,925.52083 322.90445,930.85417 320.73779,941.35417 321.57112,959.35417 307.23779,964.52083 325.90445,976.35417 348.18581,973.89055 356.62846,973.03903 365.07112,972.1875 z"
     id="Shropshire" />
  <path
     class="gwynned l"
     d="M 262.07112,950.35417 248.57112,952.35417 250.90445,911.52083 213.23779,931.52083 205.07112,920.6875 235.85591,894.61993 258.39493,872.52284 256.57112,870.02083 233.73779,852.85417 212.73779,868.02083 234.23779,888.35417 256.57112,870.02083 258.39493,872.52284 268.07688,898.71753 292.90445,906.52083 291.57112,919.02083 z"
     id="Gwynedd" />
  <path
     class="sglam l"
     d="M 313.0751,1063.5538 301.85715,1062.9793 286.91215,1067.2661 281.9624,1076.2228 283.43554,1078.9923 301.34891,1080.8779 309.65742,1077.5191 316.02138,1068.5035 z"
     id="South Glamorgan" />
  <path
     class="mglamgwent l"
     d="M 286.91215,1067.2661 301.85715,1062.9793 313.0751,1063.5538 311.40445,1033.8542 301.40445,1036.5208 292.40445,1033.1875 282.07112,1039.6875 269.76481,1064.2609 272.77001,1070.8016 276.60018,1070.3891 281.9624,1076.2228 z"
     id="Mid Glamorgan" />
  <path
     class="birm l"
     d="M 400.32112,971.125 398.69612,970.5625 395.69612,970.4375 390.13362,973.0625 387.69612,970.6875 390.63362,969.0625 388.44612,967.375 383.57112,966.25 379.23779,968.1875 378.67399,963.24774 377.0388,959.88898 380.0882,958.47477 380.88369,954.01116 376.02234,950.91756 379.3369,946.71912 382.87243,945.08393 386.58474,947.11686 390.739,944.95135 392.77193,942.34389 396.08649,944.42102 398.2962,950.69659 400.5943,948.17752 403.95305,950.38723 408.23989,957.41411 406.32112,958.6875 411.75862,966.875 416.82112,964.375 425.75862,964.4375 427.69612,970.375 425.90445,974.02083 416.57112,972.35417 413.57112,975.35417 398.57112,974.6875 z"
     id="West Midlands" />
  <path
     class="staffs l"
     d="M 369.40445,947.35417 374.56393,943.051 368.28836,938.98514 369.26063,933.947 362.45472,924.04751 365.28315,903.98335 369.07112,896.6875 371.55872,896.73551 380.57434,885.4218 391.26933,881.00238 396.66101,883.56564 406.38373,900.80137 399.66622,913.88285 406.6489,919.89325 418.49294,924.66622 408.947,934.91927 416.90195,938.98514 412.74769,949.76852 403.95305,950.38723 400.5943,948.17752 398.2962,950.69659 396.08649,944.42102 392.77193,942.34389 390.739,944.95135 386.58474,947.11686 382.87243,945.08393 379.3369,946.71912 376.02234,950.91756 380.88369,954.01116 380.0882,958.47477 377.0388,959.88898 378.67399,963.24774 379.23779,968.1875 370.23779,965.6875 z"
     id="Staffordshire" />
  <path
     class="derbys l"
     d="M 401.16882,848.2103 395.77713,846.53093 391.97643,849.80129 388.70606,858.55174 388.97123,865.88797 391.26933,881.00238 396.66101,883.56564 406.38373,900.80137 399.66622,913.88285 406.6489,919.89325 418.49294,924.66622 408.947,934.91927 416.90195,938.98514 433.60734,919.00937 438.04444,919.25686 439.31723,917.27696 435.10995,904.51368 433.78412,896.29356 438.29193,887.27795 442.09263,884.97986 442.88812,871.10289 436.25899,870.92611 434.13767,869.24673 428.21565,868.36285 422.11686,870.48417 415.84129,871.89838 407.96783,858.84248 z"
     id="Derbyshire" />
  <path
     class="syorks l"
     d="M 461.71484,841.05085 463.83616,835.12883 451.3734,833.18428 439.79453,837.42693 427.8621,839.45986 422.5588,839.72502 415.66451,841.80214 408.77022,843.87927 401.16882,848.2103 407.96783,858.84248 415.84129,871.89838 422.11686,870.48417 428.21565,868.36285 434.13767,869.24673 436.25899,870.92611 442.88812,871.10289 447.66109,860.67306 459.41674,850.15485 z"
     id="South Yorkshire" />
  <path
     class="clwyd l"
     d="M 290.94612,870.1875 300.69612,866.3125 318.19612,879.0625 322.69612,877.9375 329.57112,884.9375 326.57112,890.6875 331.69612,893.4375 332.22591,902.03881 341.59507,907.16533 337.70599,917.59516 321.61931,909.28665 311.57112,925.52083 291.57112,919.02083 292.90445,906.52083 268.07688,898.71753 258.39493,872.52284 274.57112,868.52083 z"
     id="Clwyd" />
  <path
     class="cheshire l"
     d="M 340.38362,871.125 338.19612,872.5625 328.69612,871.5625 317.94612,871.4375 322.69612,877.9375 329.57112,884.9375 326.57112,890.6875 331.69612,893.4375 332.22591,902.03881 341.59507,907.16533 360.86373,907.34211 365.28315,903.98335 369.07112,896.6875 371.55872,896.73551 380.57434,885.4218 391.26933,881.00238 388.97123,865.88797 382.69566,865.88797 377.92268,869.33512 374.0336,865.97636 369.4374,866.24153 358.65403,862.08727 360.55437,860.05434 357.10723,852.7623 352.20168,856.12106 345.30738,856.51881 346.10288,860.31951 344.68867,863.14793 341.10894,861.115 335.80564,868.62801 344.50278,866.5067 z"
     id="Cheshire" />
  <path
     class="manch l"
     d="M 365.32735,836.05691 359.09597,837.86887 356.40012,836.89659 349.06389,840.29955 345.08641,839.1505 343.93737,843.61411 342.21379,848.16611 350.03616,853.07166 352.20168,856.12106 357.10723,852.7623 360.55437,860.05434 358.65403,862.08727 369.4374,866.24153 374.0336,865.97636 377.92268,869.33512 382.69566,865.88797 388.97123,865.88797 388.70606,858.55174 391.97643,849.80129 395.77713,846.53093 389.41317,838.08984 387.6896,836.63143 386.75862,830.5625 380.38362,831.0625 376.59686,833.97978 372.17744,838.17823 369.94612,832.0625 z"
     id="Greater Manchester" />
  <path
     class="mersey l"
     d="M 321.79608,845.73543 322.69612,840.625 327.82112,835.0625 327.94612,828.5625 323.82112,832.5625 319.25862,840.5625 317.82112,845.375 320.55865,847.67997 322.32641,854.57426 322.07112,856.5 314.63362,860.1875 311.25862,862.5625 315.69612,868.0625 317.94612,871.4375 328.69612,871.5625 324.94612,864.8125 322.07112,856.5 322.32641,854.57426 324.18257,857.13753 328.82296,865.53442 333.99368,869.4677 335.80564,868.62801 341.10894,861.115 344.68867,863.14793 346.10288,860.31951 345.30738,856.51881 352.20168,856.12106 350.03616,853.07166 342.21379,848.16611 337.92696,847.41481 335.93822,852.0552 331.93864,848.74063 327.93907,845.42607 z"
     id="Merseyside" />
  <path
     class="wyorks l"
     d="M 386.88362,812.1875 386.32112,815.0625 382.63362,817.1875 378.57112,826.375 380.38362,831.0625 386.75862,830.5625 387.6896,836.63143 389.41317,838.08984 395.77713,846.53093 401.16882,848.2103 408.77022,843.87927 415.66451,841.80214 422.5588,839.72502 427.8621,839.45986 439.79453,837.42693 438.19612,834.1875 442.07112,829.0625 435.13362,824.125 434.82112,806.0625 432.44612,801.75 426.69612,804.25 424.07112,806 418.63362,806.0625 407.57112,805.375 395.07112,800 z"
     id="West Yorkshire" />
  <path
     class="lancs l"
     d="M 326.83422,808.70071 325.68517,803.39741 333.55173,800.74576 336.29177,796.06118 330.28137,792.8792 338.05954,782.80293 334.70078,775.82025 346.45643,777.41124 357.82627,772.73687 353.61589,782.00743 359.71469,790.5811 377.75862,801.3125 386.88362,812.1875 386.32112,815.0625 382.63362,817.1875 378.57112,826.375 380.38362,831.0625 376.59686,833.97978 372.17744,838.17823 369.94612,832.0625 365.32735,836.05691 359.09597,837.86887 356.40012,836.89659 349.06389,840.29955 345.08641,839.1505 343.93737,843.61411 342.21379,848.16611 337.92696,847.41481 335.93822,852.0552 331.93864,848.74063 327.93907,845.42607 321.79608,845.73543 322.69612,840.625 327.82112,835.0625 327.94612,828.5625 334.25862,824.4375 323.9174,824.52223 321.26575,820.1912 321.53092,815.41823 321.97286,804.19291 324.53612,803.66258 z"
     id="Lancashire" />
  <path
     class="humbs l"
     d="M 503.96447,823.06382 514.92462,835.65916 529.59709,836.71982 506.61612,799.15477 504.69612,785.9375 514.07112,782.0625 504.69612,777.0625 496.30197,781.06726 459.07112,796.5625 458.00253,811.35236 460.91934,825.93644 451.3734,833.18428 463.83616,835.12883 461.71484,841.05085 459.41674,850.15485 468.16719,855.19298 471.84414,847.69765 501.40121,837.65674 507.3409,842.18222 507.19948,851.51603 512.71491,855.90009 521.05877,846.14202 516.81613,841.33369 512.71491,838.64669 506.49238,832.42415 500.26984,826.20161 488.39044,828.74719 472.32144,827.88098 489.38039,825.75966 498.04245,823.37318 z"
     id="Humberside" />
  <path
     class="nyorks l"
     d="M 498.69612,770.3125 483.94612,745.5625 466.94612,734.3125 451.32112,741.1875 438.44612,740.4375 431.69612,745.4375 425.94612,742.3125 416.82112,741.4375 414.19612,738.9375 408.69612,737.1875 394.07112,746.8125 379.32112,745.9375 366.32112,757.3125 369.19612,768.0625 357.82627,772.73687 353.61589,782.00743 359.71469,790.5811 377.75862,801.3125 386.88362,812.1875 395.07112,800 407.57112,805.375 418.63362,806.0625 424.07112,806 426.69612,804.25 432.44612,801.75 434.82112,806.0625 435.13362,824.125 442.07112,829.0625 438.19612,834.1875 439.79453,837.42693 451.3734,833.18428 460.91934,825.93644 458.00253,811.35236 459.07112,796.5625 496.30197,781.06726 504.69612,777.0625 z"
     id="North Yorkshire" />
  <path
     class="durcle l"
     d="M 425.21045,708.73349 420.87942,704.40246 420.79103,700.60176 417.16711,699.80627 408.59344,696.80106 400.63849,697.33139 395.15841,705.02118 370.2329,709.61737 369.4374,716.86522 379.32112,745.9375 394.07112,746.8125 408.69612,737.1875 414.19612,738.9375 417.92716,732.47779 427.38243,731.04299 428.75862,725.6875 436.75862,716.5625 430.86731,702.01598 z"
     id="Durham" />
  <path
     class="cumbria l"
     d="M 289.97628,728.09054 304.47197,696.80106 311.36626,696.44751 318.08377,694.67974 323.56385,692.02809 323.56385,687.07835 336.64533,674.17365 346.54482,666.74903 358.91919,677.17885 353.26234,703.51858 370.2329,709.61737 369.4374,716.86522 379.32112,745.9375 366.32112,757.3125 369.19612,768.0625 357.82627,772.73687 346.45643,777.41124 334.70078,775.82025 325.33162,781.65388 322.14964,773.69893 319.49799,783.42165 312.42692,791.02304 308.0075,781.12355 312.6037,771.75438 311.36626,767.15819 305.0023,774.58281 285.73364,739.93458 z"
     id="Cumbria" />
  <path
     class="newc l"
     d="M 408.77022,678.54887 412.65931,679.38856 421.76331,681.02374 423.61946,678.41629 427.33177,684.91283 424.90109,686.01769 424.14979,687.78545 420.96781,688.13901 424.0614,688.66934 427.24338,685.84091 428.92276,689.02289 429.89503,692.82359 430.86731,702.01598 425.21045,708.73349 420.87942,704.40246 420.79103,700.60176 417.16711,699.80627 408.59344,696.80106 400.63849,697.33139 403.90886,688.71353 z"
     id="Tyne and Wear" />
  <path
     class="northumb l"
     d="M 419.90715,664.05318 412.07112,624.1875 387.07112,598.6875 372.32112,619.6875 366.87414,645.53582 346.54482,666.74903 358.91919,677.17885 353.26234,703.51858 370.2329,709.61737 395.15841,705.02118 400.63849,697.33139 403.90886,688.71353 408.77022,678.54887 412.65931,679.38856 421.76331,681.02374 423.61946,678.41629 420.57006,671.25683 z"
     id="Northumberland" />
  <path
     class="scot1 l"
     d="M 387.07112,598.6875 367.82112,582.9375 337.07112,596.1875 321.82112,606.9375 304.47197,596.03835 301.19612,608.42187 301.46174,633.875 336.64533,674.17365 346.54482,666.74903 366.87414,645.53582 372.32112,619.6875 z"
     id="Borders" />
  <path
     class="scot1 l"
     d="M 234.62307,661.79928 190.27422,686.90157 206.89123,723.67112 294.92603,693.97264 323.56385,687.07835 336.64533,674.17365 301.46174,633.875 290.1105,647.40137 269.69677,644.99024 z"
     id="Dumfries and Galloway" />
  <path
     class="scot2 l"
     d="M 253.56028,536.99493 263.283,524.09023 245.7821,514.89784 228.98832,522.14569 218.38172,532.57551 231.38362,566.125 238.63362,567.875 242.60012,577.47679 250.55508,578.75843 249.22925,571.55478 265.93465,572.17349 z"
     id="Central" />
  <path
     class="scot2 l"
     d="M 311.89659,538.23237 326.56905,528.1561 349.0197,521.79214 364.39927,494.7453 335.93822,468.9359 307.12362,480.77994 281.491,473.17854 238.71104,486.61357 231.10964,506.94289 228.98832,522.14569 245.7821,514.89784 263.283,524.09023 253.56028,536.99493 265.93465,572.17349 274.68509,580.21683 273.80121,582.7801 282.9936,592.41443 300.58288,580.08425 302.12968,576.76969 285.64525,571.81994 279.72323,564.30693 z"
     id="Tayside" />
  <path
     class="scot3 l"
     d="M 364.39927,494.7453 384.72859,459.92029 388.57112,452.3125 385.82112,447.9375 397.69612,425.1875 402.40626,403.52853 385.96602,390.97738 342.65573,391.68449 309.77527,387.97218 286.44074,397.34134 303.41131,439.94453 289.0924,457.09187 281.491,473.17854 307.12362,480.77994 335.93822,468.9359 z"
     id="Grampian" />
  <path
     class="scot3 l"
     d="M 249.07112,412.4375 271.32112,394.1875 286.08719,371.8855 270.17729,372.94616 329.92781,307.18523 331.34203,283.49715 219.2656,287.38624 196.28463,325.57 201.57112,340.6875 166.82112,372.1875 174.82112,433.4375 147.07112,423.4375 135.07112,382.1875 117.07112,396.9375 110.32112,416.6875 158.32112,462.6875 151.07112,495.9375 168.07112,516.6875 203.32112,482.6875 189.82112,505.1875 204.07112,515.4375 231.10964,506.94289 238.71104,486.61357 281.491,473.17854 289.0924,457.09187 303.41131,439.94453 286.44074,397.34134 z"
     id="Highland" />
  <path
     class="glasgow l"
     d="M 229.1651,581.89621 215.02296,566.69342 202.64859,600.28099 185.32447,581.18911 208.30545,545.83377 177.5463,571.99672 169.41457,643.76806 149.61558,648.0107 170.12168,561.03656 126.63461,617.25155 106.12852,592.50281 166.23259,537.70204 115.3209,532.04518 135.47345,492.09365 167.29325,522.49924 189.82112,505.1875 204.07112,515.4375 231.10964,506.94289 228.98832,522.14569 218.38172,532.57551 231.38362,566.125 238.63362,567.875 242.60012,577.47679 250.55508,578.75843 249.22925,571.55478 265.93465,572.17349 274.68509,580.21683 273.80121,582.7801 282.9936,592.41443 282.55166,599.48549 295.27958,599.92744 304.47197,596.03835 301.19612,608.42187 301.46174,633.875 290.1105,647.40137 269.69677,644.99024 234.62307,661.79928 190.27422,686.90157 226.69022,629.62592 222.09403,615.83734 214.73959,612.502 197.88514,633.91666 180.28634,622.27668 188.50646,603.9933 211.04549,605.31913 212.19453,587.55307 214.31585,577.83035 z"
     id="Strathclyde" />
  <path
     class="scot3 l"
     d="M 146.4336,295.87152 94.107702,329.45909 90.925722,367.64286 65.469877,387.08829 66.884091,447.54592 50.267082,475.47664 76.783582,446.83882 84.915312,404.41241 108.60339,369.05707 136.18055,351.3794 152.09046,323.80224 146.4336,295.87152 z"
     id="Western Isles" />
  <path
     class="scot3 l"
     d="M 447.41427,9.9619949 394.28927,58.211995 417.41427,116.58699 437.91427,87.586995 z"
     id="Shetland" />
  <path
     d="M 434.93317,996.19008 441.43855,986.432 443.84271,971.44134 465.76302,956.73352 469.86424,958.14773 489.66323,943.86417 499.70415,957.72347 495.88577,968.89575 491.07745,978.22956 485.56201,985.51276 480.04658,992.79596 464.63165,1000.5741 468.59145,1005.9482 466.27112,1010.2875 455.27112,1005.8875 449.47112,1012.4875 441.57997,1016.2719 z"
     id="Northamptonshire"
     class="northants l" />
  <path
     d="M 86.859238,1212.2456 76.659188,1208.8754 72.583973,1218.6598 82.835325,1222.238 z"
     id="Isles of Scilly"
     class="cornwall l" />
  <path
     class="wglam l"
     d="M 269.76481,1064.2609 282.07112,1039.6875 267.73779,1036.1875 259.23779,1038.1875 254.07112,1037.3542 249.08194,1046.4064 249.49442,1050.3545 232.52385,1054.656 236.94327,1062.4342 255.56375,1060.5486 253.44243,1057.838 258.80465,1055.5988 261.45631,1054.5971 z"
     id="West Glamorgan" />
  <path
     class="dyfed l"
     d="M 208.23779,998.85417 162.57112,1021.6875 178.73779,1027.3542 167.90445,1039.8542 194.40445,1041.5208 177.73779,1046.1875 189.57112,1055.6875 229.23779,1036.1875 231.90445,1041.0208 228.04551,1041.8692 233.58451,1048.2921 240.83236,1047.0546 243.89649,1050.2366 249.08194,1046.4064 254.07112,1037.3542 259.23779,1038.1875 267.73779,1036.1875 278.73779,1008.8542 272.07112,999.02083 277.07112,973.1875 262.07112,950.35417 248.57112,952.35417 242.40445,982.85417 z"
     id="Dyfed" />
  <path
     class="durcle l"
     d="M 440.82112,731.9375 445.82112,726.9375 454.32112,731.3125 466.94612,734.3125 451.32112,741.1875 438.44612,740.4375 431.69612,745.4375 425.94612,742.3125 416.82112,741.4375 414.19612,738.9375 417.92716,732.47779 427.38243,731.04299 428.75862,725.6875 436.75862,716.5625 442.00862,719.25 442.75862,727.6875 z"
     id="Cleveland" />
  <path
     class="scot3 l"
     d="M 367.41427,201.58698 323.66427,199.33698 301.91427,251.08698 329.91427,270.08698 z"
     id="Orkney" />
  <path
     class="edinb l"
     d="M 312.6037,578.40487 302.12968,576.76969 300.58288,580.08425 282.9936,592.41443 282.55166,599.48549 295.27958,599.92744 304.47197,596.03835 321.82112,606.9375 337.07112,596.1875 367.82112,582.9375 346.19612,568.8125 323.82112,582.5625 319.3654,579.46553 317.46506,577.47679 z"
     id="Lothian" />
  <path
     class="scot2 l"
     d="M 311.89659,538.23237 279.72323,564.30693 283.96587,567.40052 305.82112,573.8125 321.57112,563.8125 330.82112,553.5625 343.53962,555.37971 354.85333,546.54087 343.71639,528.1561 z"
     id="Fife" />
</svg>
