<?xml version="1.0" encoding="UTF-8" standalone="no"?>
<svg
   xmlns:dc="http://purl.org/dc/elements/1.1/"
   xmlns:cc="http://creativecommons.org/ns#"
   xmlns:rdf="http://www.w3.org/1999/02/22-rdf-syntax-ns#"
   xmlns:svg="http://www.w3.org/2000/svg"
   xmlns="http://www.w3.org/2000/svg"
   xmlns:sodipodi="http://sodipodi.sourceforge.net/DTD/sodipodi-0.dtd"
   xmlns:inkscape="http://www.inkscape.org/namespaces/inkscape"
   width="639.53363"
   height="1233.2344"
   id="svg2"
   sodipodi:version="0.32"
   inkscape:version="0.48.5 r10040"
   sodipodi:docname="2016.svg"
   inkscape:output_extension="org.inkscape.output.svg.inkscape"
   version="1.0">
  <metadata
     id="metadata669">
    <rdf:RDF>
      <cc:Work
         rdf:about="">
        <dc:format>image/svg+xml</dc:format>
        <dc:type
           rdf:resource="http://purl.org/dc/dcmitype/StillImage" />
      </cc:Work>
    </rdf:RDF>
  </metadata>
  <defs
     id="defs667">
    <inkscape:perspective
       sodipodi:type="inkscape:persp3d"
       inkscape:vp_x="0 : 491 : 1"
       inkscape:vp_y="0 : 1000 : 0"
       inkscape:vp_z="690 : 491 : 1"
       inkscape:persp3d-origin="345 : 327.33333 : 1"
       id="perspective671" />
  </defs>
  <sodipodi:namedview
     inkscape:window-height="1358"
     inkscape:window-width="1522"
     inkscape:pageshadow="2"
     inkscape:pageopacity="0.0"
     guidetolerance="10.0"
     gridtolerance="10.0"
     objecttolerance="10"
     borderopacity="1.0"
     bordercolor="#666666"
     pagecolor="#ffffff"
     id="base"
     showgrid="false"
     inkscape:zoom="1.131371"
     inkscape:cx="254.86837"
     inkscape:cy="359.62858"
     inkscape:window-x="1018"
     inkscape:window-y="0"
     inkscape:current-layer="svg2"
     inkscape:object-nodes="true"
     showguides="true"
     inkscape:guide-bbox="true"
     inkscape:window-maximized="0" />
  <style
     type="text/css"
     id="style1">
		.beds		{ fill: #00F; }
		.berks		{ fill: #66F; }
		.birm		{ fill: #800; }
		.bristol	{ fill: #800; }
		.bucks		{ fill: #090; }
		.cambs		{ fill: #800; }
		.cheshire	{ fill: #00F; }
		.clwyd		{ fill: #66F; }
		.cornwall	{ fill: #FF0; }
		.cumbria	{ fill: #090; }
		.derbys		{ fill: #FF0; }
		.devon		{ fill: #090; }
		.dorset		{ fill: #66F; }
		.durcle		{ fill: #00F; }
		.dyfed		{ fill: #F90; }
		.edinb		{ fill: #090; }
		.essex		{ fill: #66F; }
		.glasgow	{ fill: #800; }
		.gloucs		{ fill: #FF0; }
		.gwynned	{ fill: #800; }
		.hants		{ fill: #F44; }
		.hereworcs	{ fill: #66F; }
		.herts		{ fill: #FF0; }
		.humbs		{ fill: #FF0; }
		.kent		{ fill: #090; }
		.lancs		{ fill: #800; }
		.leics		{ fill: #00F; }
		.lincs		{ fill: #F44; }
		.london		{ fill: #00F; }
		.manch		{ fill: #66F; }
		.mersey		{ fill: #FF0; }
		.mglamgwent	{ fill: #F00; }
		.newc		{ fill: #FF0; }
		.nirel		{ fill: #090; }
		.norfolk	{ fill: #090; }
		.northants	{ fill: #FF0; }
		.northumb	{ fill: #800; }
		.notts		{ fill: #66F; }
		.nyorks		{ fill: #66F; }
		.oxon		{ fill: #800; }
		.powys		{ fill: #090; }
		.scot1		{ fill: #FF0; }
		.scot2		{ fill: #66F; }
		.scot3		{ fill: #00F; }
		.sglam		{ fill: #FF0; }
		.shrops		{ fill: #FF0; }
		.somerset	{ fill: #F90; }
		.staffs		{ fill: #090; }
		.suffolk	{ fill: #F44; }
		.surrey		{ fill: #FF0; }
		.sussexe	{ fill: #F00; }
		.sussexw	{ fill: #800; }
		.syorks		{ fill: #800; }
		.warks		{ fill: #F00; }
		.wglam		{ fill: #00F; }
		.wilts		{ fill: #00F; }
		.wyorks		{ fill: #090; }
		.l		{ stroke: black; stroke-width: 0.2; }
	</style>
  <path
     class="mersey l"
     d="M 322.07112,856.5 314.63362,860.1875 311.25862,862.5625 315.69612,868.0625 317.94612,871.4375 328.69612,871.5625 324.94612,864.8125 z"
     id="Wirral" />
  <path
     class="nirel l"
     d="M 168.38362,721.5625 173.82112,736.0625 168.94612,751.8125 164.32112,742.6875 167.94612,735.0625 161.44612,725.5625 156.44612,728.9375 161.57112,735.0625 158.94612,745.8125 163.57112,745.8125 167.44612,752.8125 162.32112,760.1875 147.44612,760.5625 143.94612,773.1875 133.94612,783.4375 118.69612,773.6875 97.071122,782.3125 82.086882,749.12697 101.17877,728.26732 115.69612,732.4375 122.07112,722.0625 118.07112,719.8125 124.32112,709.1875 110.57112,709.4375 109.66405,700.69015 101.17877,728.26732 82.086882,749.12697 72.540942,738.52036 55.923936,770.69372 23.750577,760.44067 0.0625,731.4493 15.08852,722.96401 33.296519,741.70235 23.043471,720.48915 32.589412,716.60005 20.39182,712.26903 19.154383,704.04891 41.516635,701.39726 50.620635,680.18406 55.216829,669.75423 68.298304,669.57745 81.026222,656.67275 106.48207,652.60689 132.57112,653.4375 140.32112,671.4375 157.15691,697.23775 158.1333,705.46263 145.32112,713.6875 146.32112,717.5 147.82112,718.0625 154.94612,713.375 165.07112,713.75 z"
     id="Northern Ireland" />
  <path
     class="dyfed l"
     d="M 217.40445,1007.0208 229.23779,1036.1875 231.90445,1041.0208 228.04551,1041.8692 233.58451,1048.2921 240.83236,1047.0546 243.89649,1050.2366 249.08194,1046.4064 254.07112,1037.3542 259.23779,1038.1875 267.73779,1036.1875 278.73779,1008.8542 272.07112,999.02083 z"
     id="Carmarthenshire" />
  <path
     class="devon l"
     d="M 259.57069,1172.3304 279.19612,1179.9375 278.69612,1187.9375 284.44612,1188.4375 272.44612,1209.1875 258.51003,1201.7637 241.62785,1196.2836 243.88362,1190.25 244.94612,1186.1875 243.57112,1182.0625 z"
     id="South Hams" />
  <path
     d="M 170.57726,1218.4173 176.85176,1221.2886 167.09871,1233.1719 160.11051,1231.8704 158.37231,1220.694 145.99274,1214.114 133.80187,1224.4921 127.37205,1217.1207 133.5289,1207.1554 153.85822,1202.736 162.52028,1197.2559 170.57112,1184.5625 178.57112,1171.0625 205.32112,1152.6875 214.19612,1129.1875 229.19612,1164.8125 236.05939,1174.4517 235.1755,1195.4881 200.35049,1194.6042 188.63174,1204.7604 177.19275,1213.8729 z"
     id="Cornwall"
     class="cornwall l" />
  <path
     d="M 107.44302,1136.9558 96.359082,1135.7953 99.796876,1153.9766 104.30299,1156.229 z"
     id="Gibraltar"
     class="cornwall l" />
  <path
     class="devon l"
     d="M 236.05939,1174.4517 236.82112,1184.6875 243.57112,1182.0625 259.57069,1172.3304 267.38319,1151.0805 253.80536,1133.8283 241.03199,1137.3673 229.19612,1164.8125 z"
     id="West Devon" />
  <path
     class="devon l"
     d="M 237.00862,1188.9375 238.44612,1191.9375 243.88362,1190.25 244.94612,1186.1875 243.57112,1182.0625 236.82112,1184.6875 z"
     id="Plymouth" />
  <path
     class="devon l"
     d="M 214.19612,1129.1875 215.55329,1118.5903 238.88781,1118.5903 253.80536,1133.8283 241.03199,1137.3673 229.19612,1164.8125 z"
     id="Torridge" />
  <path
     class="devon l"
     d="M 238.88781,1118.5903 237.12005,1101.0894 271.23795,1096.3164 271.06117,1103.0339 279.54645,1122.8329 274.58661,1131.0158 253.80536,1133.8283 z"
     id="North Devon" />
  <path
     class="somerset l"
     d="M 271.23795,1096.3164 321.44612,1099.1875 333.69612,1111.5625 328.94612,1116.0625 302.93617,1110.2214 279.54645,1122.8329 271.06117,1103.0339 271.23795,1096.3164 z"
     id="West Somerset" />
  <path
     class="somerset l"
     d="M 328.94612,1116.0625 L 322.07112,1127.4375 L 315.07112,1133.8125 L 279.54645,1122.8329 L 302.93617,1110.2214 L 328.94612,1116.0625 z"
     id="Taunton Deane" />
  <path
     class="devon l"
     d="M 289.32112,1157.5625 L 281.32112,1155.6875 L 281.07112,1150.8125 L 288.32112,1149.4375 L 289.32112,1157.5625 z"
     id="Exeter" />
  <path
     class="devon l"
     d="M 287.32112,1159.3125 289.19612,1167.5625 284.44612,1175.9375 279.19612,1179.9375 259.57069,1172.3304 267.38319,1151.0805 281.07112,1150.8125 281.32112,1155.6875 289.32112,1157.5625 z"
     id="Teignbridge" />
  <path
     class="devon l"
     d="M 284.44612,1175.9375 L 284.44612,1188.4375 L 278.69612,1187.9375 L 279.19612,1179.9375 L 284.44612,1175.9375 z"
     id="Torbay" />
  <path
     d="M 289.32112,1157.5625 291.82112,1165.4375 311.28987,1157.875 324.19612,1154.5625 323.94612,1142.5625 315.07112,1133.8125 288.32112,1149.4375 z"
     id="East Devon"
     class="devon l" />
  <path
     class="dorset l"
     d="M 323.94612,1142.5625 345.94612,1136.3125 354.82112,1124.4375 360.94612,1128.0625 371.69612,1150.3125 361.32112,1164.0625 354.23954,1157.6787 354.57112,1166.8125 324.19612,1154.5625 z"
     id="West Dorset" />
  <path
     class="somerset l"
     d="M 354.82112,1124.4375 322.07112,1127.4375 315.07112,1133.8125 323.94612,1142.5625 345.94612,1136.3125 354.82112,1124.4375 z"
     id="South Somerset" />
  <path
     class="somerset l"
     d="M 333.69612,1111.5625 346.94612,1114.5625 356.69612,1094.3125 371.19612,1088.5625 367.19612,1115.4375 360.94612,1128.0625 354.82112,1124.4375 322.07112,1127.4375 328.94612,1116.0625 333.69612,1111.5625 z"
     id="Mendip" />
  <path
     class="somerset l"
     d="M 356.69612,1094.3125 341.94612,1089.3125 320.69612,1088.6875 321.44612,1099.1875 333.69612,1111.5625 346.94612,1114.5625 356.69612,1094.3125 z"
     id="Sedgemoor" />
  <path
     class="bristol l"
     d="M 345.07112,1084.0625 348.44612,1081.0625 346.94612,1074.8125 344.44612,1070.8125 340.88362,1068.3125 326.94612,1080.3125 320.69612,1088.6875 341.94612,1089.3125 z"
     id="North Somerset" />
  <path
     class="bristol l"
     d="M 371.19612,1088.5625 356.69612,1094.3125 341.94612,1089.3125 345.07112,1084.0625 348.44612,1081.0625 351.69612,1079.125 354.07112,1075.4375 358.75862,1074.75 362.19612,1076.6875 369.63362,1077.125 370.57112,1080.6875 366.13362,1086.3125 z"
     id="Bath and North East Somerset" />
  <path
     class="bristol l"
     d="M 340.88362,1068.3125 343.82112,1064.5625 351.25537,1066.3549 353.19612,1069.9375 354.07112,1075.4375 351.69612,1079.125 348.44612,1081.0625 346.94612,1074.8125 344.44612,1070.8125 z"
     id="Bristol, City of" />
  <path
     class="bristol l"
     d="M 347.7986,1058.2648 352.82112,1050 363.00862,1054.1875 371.07112,1061.1875 369.63362,1077.125 362.19612,1076.6875 358.75862,1074.75 354.07112,1075.4375 353.19612,1069.9375 351.25537,1066.3549 343.82112,1064.5625 z"
     id="South Gloucestershire" />
  <path
     class="dorset l"
     d="M 396.12636,1147.8351 396.50862,1156.1875 393.94612,1158.625 390.25862,1152.6875 386.96496,1149.4073 z"
     id="Poole" />
  <path
     class="dorset l"
     d="M 392.94612,1125.3125 406.41903,1145.0567 401.54978,1149.231 396.12636,1147.8351 386.96496,1149.4073 382.19612,1129.9375 z"
     id="East Dorset" />
  <path
     class="dorset l"
     d="M 400.88362,1154.75 407.32112,1154.5625 401.54978,1149.231 396.12636,1147.8351 396.50862,1156.1875 z"
     id="Bournemouth" />
  <path
     class="dorset l"
     d="M 407.32112,1154.5625 411.44612,1152.625 406.41903,1145.0567 401.54978,1149.231 z"
     id="Christchurch" />
  <path
     class="dorset l"
     d="M 367.19612,1115.4375 377.19612,1120.8125 382.19612,1129.9375 386.96496,1149.4073 371.69612,1150.3125 360.94612,1128.0625 z"
     id="North Dorset" />
  <path
     class="hants l"
     d="M 418.69612,1160.6875 L 438.44612,1148.9375 L 454.82112,1157.4375 L 440.44612,1170.5625 L 418.69612,1160.6875 z"
     id="Isle of Wight" />
  <path
     class="hants l"
     d="M 423.19612,1150.6875 437.14288,1144.2671 427.59694,1134.3234 425.78498,1131.6717 416.28323,1128.6223 412.19612,1129.4375 400.69612,1122.8125 392.94612,1125.3125 406.41903,1145.0567 411.44612,1152.625 419.19612,1155.1875 z"
     id="New Forest" />
  <path
     class="hants l"
     d="M 425.78498,1131.6717 428.17146,1129.2853 433.07701,1130.0366 437.21175,1133.3594 433.75862,1137.0469 427.59694,1134.3234 z"
     id="Southampton" />
  <path
     class="hants l"
     d="M 435.72866,1101.3545 L 445.53977,1103.8294 L 449.8708,1107.9837 L 450.10456,1115.8522 L 441.20874,1125.9265 L 434.04929,1124.0703 L 435.72866,1101.3545 z"
     id="Winchester" />
  <path
     class="hants l"
     d="M 437.21175,1133.3594 L 433.07701,1130.0366 L 434.04929,1124.0703 L 441.20874,1125.9265 L 440.7668,1134.9421 L 437.40804,1140.3338 L 433.75862,1137.0469 L 437.21175,1133.3594 z"
     id="Eastleigh" />
  <path
     class="hants l"
     d="M 437.40804,1140.3338 L 440.7668,1134.9421 L 451.01985,1139.0964 L 442.35779,1143.6926 L 437.40804,1140.3338 z"
     id="Fareham" />
  <path
     class="hants l"
     d="M 442.35779,1143.6926 L 449.38466,1148.5097 L 451.01985,1139.0964 L 442.35779,1143.6926 z"
     id="Gosport" />
  <path
     class="hants l"
     d="M 452.876,1144.3555 451.55018,1147.0955 456.7209,1147.9794 456.10218,1144.4439 457.428,1139.7593 455.1741,1139.3615 451.01985,1139.0964 z"
     id="Portsmouth" />
  <path
     class="hants l"
     d="M 457.428,1139.7593 L 455.1741,1139.3615 L 456.58831,1136.5331 L 463.21744,1137.4612 L 463.5268,1147.8468 L 457.64897,1147.0513 L 457.428,1139.7593 z"
     id="Havant" />
  <path
     class="wilts l"
     d="M 382.19612,1129.9375 377.19612,1120.8125 367.19612,1115.4375 371.19612,1088.5625 366.13362,1086.3125 370.57112,1080.6875 369.63362,1077.125 371.07112,1061.1875 397.07112,1053.4375 401.32112,1060.1875 400.19612,1068.5625 417.57112,1066.9375 424.44612,1088.0625 411.19612,1100.5625 413.71997,1106.6578 416.28323,1128.6223 412.19612,1129.4375 400.69612,1122.8125 392.94612,1125.3125 z"
     id="Wiltshire" />
  <path
     class="wilts l"
     d="M 401.32112,1060.1875 397.07112,1053.4375 413.14544,1049.3822 411.02412,1060.033 417.57112,1066.9375 400.19612,1068.5625 z"
     id="Swindon" />
  <path
     class="oxon l"
     d="M 413.14544,1049.3822 436.40706,1038.4609 442.89924,1043.3984 448.32112,1064.4375 417.57112,1066.9375 411.02412,1060.033 z"
     id="Vale of White Horse" />
  <path
     class="berks l"
     d="M 448.32112,1064.4375 451.32112,1070.1875 451.69612,1076.8125 450.19612,1083.4375 424.44612,1088.0625 417.57112,1066.9375 448.32112,1064.4375 z"
     id="West Berkshire" />
  <path
     class="hants l"
     d="M 450.19612,1083.4375 445.53977,1103.8294 435.72866,1101.3545 434.04929,1124.0703 433.07701,1130.0366 428.17146,1129.2853 425.78498,1131.6717 416.28323,1128.6223 413.71997,1106.6578 411.19612,1100.5625 424.44612,1088.0625 z"
     id="Test Valley" />
  <path
     class="hants l"
     d="M 450.19612,1083.4375 459.44612,1084.3125 459.57112,1102.6875 449.8708,1107.9837 445.53977,1103.8294 450.19612,1083.4375 z"
     id="Basingstoke and Deane" />
  <path
     class="hants l"
     d="M 459.57112,1102.6875 468.94612,1116.8125 464.77994,1131.8362 463.21744,1137.4612 456.58831,1136.5331 455.1741,1139.3615 451.01985,1139.0964 440.7668,1134.9421 441.20874,1125.9265 450.10456,1115.8522 449.8708,1107.9837 z"
     id="East Hampshire" />
  <path
     class="sussexw l"
     d="M 468.94612,1116.8125 L 475.69612,1113.9375 L 484.32112,1114.0625 L 486.82112,1128.1875 L 480.82112,1143.0625 L 475.32112,1148.3125 L 473.94612,1153.8125 L 465.07112,1147.5625 L 463.21744,1137.4612 L 464.77994,1131.8362 L 468.94612,1116.8125 z"
     id="Chichester" />
  <path
     class="sussexw l"
     d="M 492.73915,1142.0574 500.20796,1138.787 503.38994,1143.4716 492.25301,1144.7532 492.73915,1142.0574 z"
     id="Worthing" />
  <path
     class="sussexw l"
     d="M 500.20796,1138.787 511.16812,1137.2844 513.33363,1141.4387 503.38994,1143.4716 500.20796,1138.787 z"
     id="Adur" />
  <path
     class="sussexe l"
     d="M 515.05721,1136.6657 518.81371,1134.9421 522.52602,1137.3728 530.52517,1145.8139 519.16726,1142.4551 517.57627,1141.9248 513.33363,1141.4387 511.16812,1137.2844 z"
     id="Brighton and Hove" />
  <path
     class="sussexe l"
     d="M 530.52517,1145.8139 L 538.88362,1148.25 L 546.94612,1140.875 L 526.75862,1122.0625 L 519.75862,1128.875 L 518.81371,1134.9421 L 522.52602,1137.3728 L 530.52517,1145.8139 z"
     id="Lewes" />
  <path
     class="sussexe l"
     d="M 546.94612,1140.875 L 551.94612,1143.5 L 546.07112,1151.1875 L 538.88362,1148.25 L 546.94612,1140.875 z"
     id="Eastbourne" />
  <path
     class="sussexw l"
     d="M 486.82112,1128.1875 514.19612,1120.9375 519.75862,1128.875 518.81371,1134.9421 515.05721,1136.6657 511.16812,1137.2844 500.20796,1138.787 492.73915,1142.0574 492.25301,1144.7532 473.94612,1153.8125 475.32112,1148.3125 480.82112,1143.0625 z"
     id="Arun" />
  <path
     class="sussexw l"
     d="M 484.32112,1114.0625 L 493.32112,1112.9375 L 498.69612,1111.3125 L 511.57112,1106.8125 L 512.69612,1113.3125 L 518.07112,1111.3125 L 517.82112,1106.9375 L 523.69612,1107.3125 L 520.57112,1117.9375 L 514.19612,1120.9375 L 486.82112,1128.1875 L 484.32112,1114.0625 z"
     id="Horsham" />
  <path
     class="sussexw l"
     d="M 511.57112,1106.8125 L 514.19612,1102.8125 L 517.82112,1106.9375 L 518.07112,1111.3125 L 512.69612,1113.3125 L 511.57112,1106.8125 z"
     id="Crawley" />
  <path
     class="sussexw l"
     d="M 523.69612,1107.3125 530.82112,1106.6875 526.75862,1122.0625 519.75862,1128.875 514.19612,1120.9375 520.57112,1117.9375 523.69612,1107.3125 z"
     id="Mid Sussex" />
  <path
     class="sussexe l"
     d="M 530.82112,1106.6875 L 538.57112,1106.8125 L 555.57112,1112.9375 L 546.94612,1140.875 L 526.75862,1122.0625 L 530.82112,1106.6875 z"
     id="Wealden" />
  <path
     class="sussexe l"
     d="M 555.57112,1112.9375 559.07112,1115.3125 569.69612,1119.6875 576.94612,1121.4375 563.32112,1138.1875 551.94612,1143.5 546.94612,1140.875 555.57112,1112.9375 z"
     id="Rother" />
  <path
     class="sussexe l"
     d="M 576.94612,1121.4375 581.57112,1121.3125 587.32112,1128.8125 563.32112,1138.1875 576.94612,1121.4375 z"
     id="Hastings" />
  <path
     class="kent l"
     d="M 581.57112,1121.3125 596.32112,1100.1875 606.07112,1099.5625 610.44612,1109.1875 594.19612,1119.4375 596.07112,1129.6875 587.32112,1128.8125 581.57112,1121.3125 z"
     id="Shepway" />
  <path
     class="kent l"
     d="M 610.44612,1109.1875 L 622.94612,1102.6875 L 623.19612,1092.6875 L 610.07112,1091.6875 L 606.07112,1099.5625 L 610.44612,1109.1875 z"
     id="Dover" />
  <path
     class="kent l"
     d="M 623.19612,1092.6875 625.44612,1076.0625 600.82112,1078.5625 601.07112,1083.6875 613.07112,1083.5625 610.07112,1091.6875 z"
     id="Thanet" />
  <path
     class="kent l"
     d="M 600.82112,1078.5625 L 592.19612,1082.3125 L 593.82112,1090.5625 L 596.32112,1100.1875 L 606.07112,1099.5625 L 610.07112,1091.6875 L 613.07112,1083.5625 L 601.07112,1083.6875 L 600.82112,1078.5625 z"
     id="Canterbury" />
  <path
     class="kent l"
     d="M 593.82112,1090.5625 L 571.07112,1103.9375 L 569.69612,1119.6875 L 576.94612,1121.4375 L 581.57112,1121.3125 L 596.32112,1100.1875 L 593.82112,1090.5625 z"
     id="Ashford" />
  <path
     class="kent l"
     d="M 571.07112,1103.9375 560.94612,1088.3125 558.07112,1091.5625 553.82112,1099.6875 562.57112,1106.5625 559.07112,1115.3125 569.69612,1119.6875 571.07112,1103.9375 z"
     id="Maidstone" />
  <path
     class="kent l"
     d="M 553.82112,1099.6875 L 538.57112,1106.8125 L 555.57112,1112.9375 L 559.07112,1115.3125 L 562.57112,1106.5625 L 553.82112,1099.6875 z"
     id="Tunbridge Wells" />
  <path
     class="kent l"
     d="M 558.07112,1091.5625 L 553.82112,1083.8125 L 550.32112,1086.3125 L 530.19612,1097.6875 L 530.82112,1106.6875 L 538.57112,1106.8125 L 553.82112,1099.6875 L 558.07112,1091.5625 z"
     id="Tonbridge and Malling" />
  <path
     class="surrey l"
     d="M 530.19612,1097.6875 529.94612,1090.1875 526.94612,1086.1875 524.32112,1085.3125 518.44612,1091.0625 514.19612,1102.8125 517.82112,1106.9375 523.69612,1107.3125 530.82112,1106.6875 530.19612,1097.6875 z"
     id="Tandridge" />
  <path
     class="surrey l"
     d="M 518.44612,1091.0625 516.13362,1087.3125 513.57112,1085.25 508.32112,1090.6875 514.19612,1102.8125 518.44612,1091.0625 z"
     id="Reigate and Banstead" />
  <path
     class="surrey l"
     d="M 508.32112,1090.6875 L 504.40641,1087.0356 L 495.92113,1087.124 L 490.17589,1093.7531 L 498.69612,1111.3125 L 511.57112,1106.8125 L 514.19612,1102.8125 L 508.32112,1090.6875 z"
     id="Mole Valley" />
  <path
     class="surrey l"
     d="M 490.17589,1093.7531 L 479.39251,1097.4654 L 476.21053,1098.4377 L 477.09441,1102.15 L 487.34746,1101.7081 L 493.32112,1112.9375 L 498.69612,1111.3125 L 490.17589,1093.7531 z"
     id="Guildford" />
  <path
     class="surrey l"
     d="M 476.21053,1098.4377 471.52595,1096.7583 475.69612,1113.9375 484.32112,1114.0625 493.32112,1112.9375 487.34746,1101.7081 477.09441,1102.15 476.21053,1098.4377 z"
     id="Waverley" />
  <path
     class="hants l"
     d="M 471.52595,1096.7583 468.60913,1084.8259 463.92455,1083.5001 459.44612,1084.3125 459.57112,1102.6875 468.94612,1116.8125 475.69612,1113.9375 471.52595,1096.7583 z"
     id="Hart" />
  <path
     class="hants l"
     d="M 476.21053,1098.4377 473.82404,1086.8588 468.60913,1084.8259 471.52595,1096.7583 476.21053,1098.4377 z"
     id="Rushmoor" />
  <path
     class="surrey l"
     d="M 495.92113,1087.124 L 489.20361,1085.0911 L 478.50862,1090.5712 L 479.39251,1097.4654 L 490.17589,1093.7531 L 495.92113,1087.124 z"
     id="Woking" />
  <path
     class="surrey l"
     d="M 489.20361,1085.0911 L 484.43064,1080.4949 L 476.56408,1083.3233 L 473.82404,1086.8588 L 476.21053,1098.4377 L 479.39251,1097.4654 L 478.50862,1090.5712 L 489.20361,1085.0911 z"
     id="Surrey Heath" />
  <path
     class="berks l"
     d="M 476.56408,1083.3233 477.88991,1073.5122 474.53115,1072.6283 472.23305,1078.5503 463.92455,1083.5001 468.60913,1084.8259 473.82404,1086.8588 476.56408,1083.3233 z"
     id="Bracknell Forest" />
  <path
     class="berks l"
     d="M 472.23305,1078.5503 L 465.86909,1075.5451 L 460.30062,1078.7271 L 451.69612,1076.8125 L 450.19612,1083.4375 L 459.44612,1084.3125 L 463.92455,1083.5001 L 472.23305,1078.5503 z"
     id="Wokingham" />
  <path
     class="berks l"
     d="M 460.30062,1078.7271 465.86909,1075.5451 462.95228,1072.5399 460.65418,1069.6231 457.56059,1072.2748 451.32112,1070.1875 451.69612,1076.8125 z"
     id="Reading" />
  <path
     class="oxon l"
     d="M 465.33876,1063.0824 462.33356,1054.0668 463.65938,1042.7531 449.0753,1036.7427 443.52843,1036.1177 442.89924,1043.3984 448.32112,1064.4375 451.32112,1070.1875 457.56059,1072.2748 460.65418,1069.6231 462.95228,1072.5399 z"
     id="South Oxfordshire" />
  <path
     class="oxon l"
     d="M 437.31965,1032.1465 436.40706,1038.4609 442.89924,1043.3984 443.52843,1036.1177 z"
     id="Oxford" />
  <path
     class="oxon l"
     d="M 437.31965,1032.1465 432.10474,1017.1204 421.85169,1015.2643 412.74769,1016.1482 413.14544,1049.3822 436.40706,1038.4609 z"
     id="West Oxfordshire" />
  <path
     class="gloucs l"
     d="M 412.74769,1016.1482 405.69612,1002.5625 400.69612,1013.8125 398.57112,1026.1875 389.19612,1025.4375 385.32112,1029.8125 381.44612,1034.8125 381.69612,1047.8125 363.00862,1054.1875 371.07112,1061.1875 397.07112,1053.4375 413.14544,1049.3822 412.74769,1016.1482 z"
     id="Cotswold" />
  <path
     class="gloucs l"
     d="M 389.19612,1025.4375 L 381.32112,1023.3125 L 379.82112,1027.4375 L 385.32112,1029.8125 L 389.19612,1025.4375 z"
     id="Cheltenham" />
  <path
     class="gloucs l"
     d="M 381.44612,1034.8125 L 377.19612,1031.5625 L 369.82112,1033.8125 L 352.82112,1050 L 363.00862,1054.1875 L 381.69612,1047.8125 L 381.44612,1034.8125 z"
     id="Stroud" />
  <path
     class="gloucs l"
     d="M 377.19612,1031.5625 L 376.69612,1026.8125 L 372.07112,1027.3125 L 369.82112,1033.8125 L 377.19612,1031.5625 z"
     id="Gloucester" />
  <path
     class="gloucs l"
     d="M 372.07112,1027.3125 L 378.44612,1014.4375 L 395.57112,1010.1875 L 400.69612,1013.8125 L 398.57112,1026.1875 L 389.19612,1025.4375 L 381.32112,1023.3125 L 379.82112,1027.4375 L 385.32112,1029.8125 L 381.44612,1034.8125 L 377.19612,1031.5625 L 376.69612,1026.8125 L 372.07112,1027.3125 z"
     id="Tewkesbury" />
  <path
     class="kent l"
     d="M 582.45332,1081.2904 591.82249,1078.8155 577.41519,1071.5677 569.90218,1078.3736 568.04602,1084.4724 565.21759,1084.0304 560.94612,1088.3125 571.07112,1103.9375 593.82112,1090.5625 592.19612,1082.3125 z"
     id="Swale" />
  <path
     class="kent l"
     d="M 562.83111,1076.1639 576.44612,1070.5625 563.69612,1067.625 557.69612,1071.5 559.82112,1076 553.82112,1083.8125 558.07112,1091.5625 560.94612,1088.3125 565.21759,1084.0304 568.04602,1084.4724 569.90218,1078.3736 z"
     id="Medway" />
  <path
     class="kent l"
     d="M 557.69612,1071.5 L 552.13362,1073.1875 L 547.88362,1071 L 549.38362,1080.75 L 550.32112,1086.3125 L 553.82112,1083.8125 L 559.82112,1076 L 557.69612,1071.5 z"
     id="Gravesham" />
  <path
     class="kent l"
     d="M 549.38362,1080.75 L 545.07112,1082.1875 L 536.88362,1077.25 L 529.94612,1090.1875 L 530.19612,1097.6875 L 550.32112,1086.3125 L 549.38362,1080.75 z"
     id="Sevenoaks" />
  <path
     class="kent l"
     d="M 536.88362,1077.25 L 538.38362,1073.375 L 541.32112,1069.25 L 545.19612,1072.1875 L 547.88362,1071 L 549.38362,1080.75 L 545.07112,1082.1875 L 536.88362,1077.25 z"
     id="Dartford" />
  <path
     class="london l"
     d="M 536.88362,1077.25 533.63362,1076.6875 531.66487,1074.875 528.50862,1073.6562 526.07112,1076.875 521.57112,1075.6875 521.16487,1076.5 521.91487,1078.125 526.50862,1084.1875 526.94612,1086.1875 529.94612,1090.1875 z"
     id="Bromley" />
  <path
     class="london l"
     d="M 538.60237,1069.0625 537.38362,1066.7188 532.72737,1066.4062 531.50862,1067.9375 531.44612,1069.25 534.00862,1070.1562 531.66487,1074.875 533.63362,1076.6875 536.88362,1077.25 538.38362,1073.375 541.32112,1069.25 z"
     id="Bexley" />
  <path
     class="london l"
     d="M 531.50862,1067.9375 526.94612,1068.2188 525.03987,1070.4375 527.32112,1072.0938 528.50862,1073.6562 531.66487,1074.875 534.00862,1070.1562 531.44612,1069.25 z"
     id="Greenwich" />
  <path
     class="london l"
     d="M 525.03987,1070.4375 524.00862,1068.4375 522.63362,1069.4062 523.22737,1073.125 521.57112,1075.6875 526.07112,1076.875 528.50862,1073.6562 527.32112,1072.0938 z"
     id="Lewisham" />
  <path
     class="london l"
     d="M 517.47737,1079.6875 517.78987,1077.4062 518.88362,1076.125 521.16487,1076.5 521.91487,1078.125 526.50862,1084.1875 526.94612,1086.1875 524.32112,1085.3125 518.44612,1091.0625 516.13362,1087.3125 518.19612,1082 z"
     id="Croydon" />
  <path
     class="london l"
     d="M 513.66487,1080.4062 510.63362,1080.3125 509.85237,1081.2188 511.16487,1085.9688 513.57112,1085.25 516.13362,1087.3125 518.19612,1082 517.47737,1079.6875 z"
     id="Sutton" />
  <path
     class="surrey l"
     d="M 509.85237,1081.2188 L 504.40641,1087.0356 L 508.32112,1090.6875 L 513.57112,1085.25 L 511.16487,1085.9688 L 509.85237,1081.2188 z"
     id="Epsom and Ewell" />
  <path
     class="london l"
     d="M 510.63362,1080.3125 509.69612,1078.3125 505.47737,1077.5625 504.91487,1079.75 504.40641,1087.0356 509.85237,1081.2188 510.63362,1080.3125 z"
     id="Kingston upon Thames" />
  <path
     class="london l"
     d="M 514.22737,1076.2188 513.50862,1074.3438 509.35237,1075.375 509.69612,1078.3125 510.63362,1080.3125 513.66487,1080.4062 517.47737,1079.6875 517.78987,1077.4062 516.75862,1076.7812 z"
     id="Merton" />
  <path
     class="london l"
     d="M 524.00862,1068.4375 523.91487,1067.375 521.57112,1067.875 519.10237,1067.0312 518.97737,1069.875 520.16487,1071.1875 521.57112,1075.6875 523.22737,1073.125 522.63362,1069.4062 z"
     id="Southwark" />
  <path
     class="london l"
     d="M 516.10237,1071.7812 517.75862,1069.4688 519.10237,1067.0312 518.97737,1069.875 520.16487,1071.1875 521.57112,1075.6875 521.16487,1076.5 518.88362,1076.125 517.78987,1077.4062 516.75862,1076.7812 516.63362,1073.9375 z"
     id="Lambeth" />
  <path
     class="london l"
     d="M 516.10237,1071.7812 516.63362,1073.9375 516.75862,1076.7812 514.22737,1076.2188 513.50862,1074.3438 509.35237,1075.375 508.53987,1073.0312 510.97737,1071.1562 513.10237,1072 515.38362,1070 517.75862,1069.4688 z"
     id="Wandsworth" />
  <path
     class="london l"
     d="M 510.97737,1071.1562 510.47737,1069.9062 508.47737,1071.6562 506.35237,1070.4688 504.53987,1071.9375 500.07538,1073.689 499.98699,1076.8268 499.85441,1078.0642 504.91487,1079.75 505.47737,1077.5625 509.69612,1078.3125 509.35237,1075.375 508.53987,1073.0312 z"
     id="Richmond upon Thames" />
  <path
     class="surrey l"
     d="M 504.91487,1079.75 499.85441,1078.0642 497.15857,1080.8926 495.92113,1087.124 504.40641,1087.0356 504.91487,1079.75 z"
     id="Elmbridge" />
  <path
     class="surrey l"
     d="M 497.15857,1080.8926 490.70622,1075.3684 487.25907,1073.8658 484.43064,1080.4949 489.20361,1085.0911 495.92113,1087.124 497.15857,1080.8926 z"
     id="Runnymede" />
  <path
     class="surrey l"
     d="M 490.70622,1075.3684 L 490.22008,1070.3744 L 491.94365,1070.507 L 495.03725,1073.1587 L 499.98699,1076.8268 L 499.85441,1078.0642 L 497.15857,1080.8926 L 490.70622,1075.3684 z"
     id="Spelthorne" />
  <path
     class="berks l"
     d="M 478.42024,1067.4134 482.44191,1068.4741 490.26427,1068.5625 490.22008,1070.3744 490.70622,1075.3684 487.25907,1073.8658 484.43064,1080.4949 476.56408,1083.3233 477.88991,1073.5122 474.53115,1072.6283 472.23305,1078.5503 465.86909,1075.5451 462.95228,1072.5399 465.33876,1063.0824 475.59181,1061.1378 z"
     id="Windsor and Maidenhead" />
  <path
     class="berks l"
     d="M 482.44191,1068.4741 L 481.24866,1064.585 L 490.17589,1066.7505 L 490.26427,1068.5625 L 482.44191,1068.4741 z"
     id="Slough" />
  <path
     class="bucks l"
     d="M 475.59181,1061.1378 477.00602,1053.0061 491.98785,1057.5139 492.87173,1059.9446 492.96012,1069.0044 491.94365,1070.507 490.22008,1070.3744 490.26427,1068.5625 490.17589,1066.7505 481.24866,1064.585 482.44191,1068.4741 478.42024,1067.4134 475.59181,1061.1378 z"
     id="South Bucks" />
  <path
     class="london l"
     d="M 498.396,1068.2531 500.60571,1064.8943 497.55631,1063.7453 500.38474,1062.1764 498.48439,1055.9008 491.98785,1057.5139 492.87173,1059.9446 492.96012,1069.0044 491.94365,1070.507 495.03725,1073.1587 z"
     id="Hillingdon" />
  <path
     class="london l"
     d="M 504.53987,1071.9375 506.35095,1069.4021 508.38389,1070.7722 509.84229,1069.0928 509.57713,1068.0321 507.01387,1067.6344 501.22443,1069.0044 498.396,1068.2531 495.03725,1073.1587 499.98699,1076.8268 500.07538,1073.689 z"
     id="Hounslow" />
  <path
     class="london l"
     d="M 513.24217,1069.2402 514.19221,1069.9296 516.118,1069.375 512.91487,1066.0781 513.11266,1063.9442 510.94715,1064.7397 511.618,1067.125 z"
     id="Kensington and Chelsea" />
  <path
     class="london l"
     d="M 515.18979,1063.7453 516.14925,1065.0312 518.83675,1065.5938 518.60237,1066.5469 517.35237,1069.2031 516.118,1069.375 512.91487,1066.0781 513.11266,1063.9442 z"
     id="Westminster" />
  <path
     class="london l"
     d="M 522.39925,1066.3438 524.368,1066.6719 525.28987,1068.9062 527.368,1067.0938 530.83675,1067.5156 529.00862,1065.2344 525.243,1064.3594 524.94612,1062.7656 520.60237,1065.4375 521.02425,1066.9219 z"
     id="Tower Hamlets" />
  <path
     class="london l"
     d="M 529.00862,1065.2344 525.243,1064.3594 524.94612,1062.7656 528.5555,1061.4844 529.72737,1060.3906 530.89925,1062.6719 532.91487,1065.6719 530.83675,1067.5156 z"
     id="Newham" />
  <path
     class="london l"
     d="M 534.58675,1060.5938 534.60237,1058.1875 535.94612,1056.5625 537.13362,1060.5 540.04768,1060.6797 539.47737,1066.3672 536.02425,1065.5469 532.91487,1065.6719 530.97737,1062.8438 z"
     id="Barking and Dagenham" />
  <path
     class="essex l"
     d="M 543.28987,1064.1875 548.78987,1062.4062 547.47737,1059.75 552.16487,1059.5 561.60237,1063.1875 564.00862,1065.2812 556.03987,1070.875 550.76253,1071.8945 548.48518,1069.7266 545.493,1071.0156 540.69612,1068.2812 z"
     id="Thurrock" />
  <path
     class="essex l"
     d="M 561.60237,1063.1875 564.60237,1056.7188 562.97737,1052.875 552.91487,1049.9688 552.16487,1059.5 z"
     id="Basildon" />
  <path
     class="essex l"
     d="M 561.60237,1063.1875 L 564.00862,1065.2812 L 568.69612,1064.0938 L 568.89924,1062.0625 L 569.16487,1058.4688 L 564.60237,1056.7188 L 561.60237,1063.1875 z"
     id="Castle Point" />
  <path
     class="essex l"
     d="M 563.88937,1050.1641 575.13362,1051.125 585.07112,1053.1875 584.97737,1054.9062 591.19612,1052.0938 583.75001,1059.5288 569.16487,1058.4688 564.60237,1056.7188 562.97737,1052.875 z"
     id="Rochford" />
  <path
     class="essex l"
     d="M 563.88937,1050.1641 563.9562,1032.0032 574.74292,1024.7358 587.49146,1035.4169 579.41503,1038.9956 589.07112,1038.1875 589.63362,1050.5625 575.13362,1051.125 z"
     id="Maldon" />
  <path
     class="london l"
     d="M 547.47737,1059.75 541.57112,1052.6875 539.44612,1053.5 534.94612,1054 535.94612,1056.5625 537.13362,1060.5 540.04768,1060.6797 539.47737,1066.3672 540.69612,1068.2812 543.28987,1064.1875 548.78987,1062.4062 z"
     id="Havering" />
  <path
     class="london l"
     d="M 534.94612,1054 528.82369,1054.9286 527.80723,1057.757 529.72737,1060.3906 530.97737,1062.8438 534.58675,1060.5938 534.60237,1058.1875 535.94612,1056.5625 z"
     id="Redbridge" />
  <path
     class="london l"
     d="M 522.85748,1060.8285 521.86311,1059.2154 518.9242,1060.4086 520.89084,1062.4416 520.60237,1065.4375 524.94612,1062.7656 524.11701,1060.7843 z"
     id="Hackney" />
  <path
     class="london l"
     d="M 518.9242,1060.4086 516.40513,1060.2761 516.6261,1061.5356 518.83675,1065.5938 520.60237,1065.4375 520.89084,1062.4416 z"
     id="Islington" />
  <path
     class="london l"
     d="M 516.40513,1060.2761 514.3722,1059.9446 511.61006,1061.8891 513.11266,1063.9442 515.18979,1063.7453 516.14925,1065.0312 518.83675,1065.5938 516.6261,1061.5356 z"
     id="Camden" />
  <path
     class="london l"
     d="M 511.61006,1061.8891 510.26214,1060.1435 508.93631,1060.1877 507.69888,1057.1162 503.89818,1059.5689 503.16897,1061.8228 504.40641,1062.3532 506.08579,1064.5629 510.94715,1064.7397 513.11266,1063.9442 z"
     id="Brent" />
  <path
     class="london l"
     d="M 504.40641,1062.3532 503.16897,1061.8228 500.38474,1062.1764 497.55631,1063.7453 500.60571,1064.8943 498.396,1068.2531 501.22443,1069.0044 507.01387,1067.6344 509.57713,1068.0321 511.618,1067.125 510.94715,1064.7397 506.08579,1064.5629 z"
     id="Ealing" />
  <path
     class="london l"
     d="M 503.89818,1059.5689 507.69888,1057.1162 505.35659,1053.2271 500.89297,1054.9507 498.48439,1055.9008 500.38474,1062.1764 503.16897,1061.8228 z"
     id="Harrow" />
  <path
     class="london l"
     d="M 513.38362,1049.5312 516.69239,1055.1937 514.3722,1059.9446 511.61006,1061.8891 510.26214,1060.1435 508.93631,1060.1877 507.69888,1057.1162 505.35659,1053.2271 508.51647,1052.299 z"
     id="Barnet" />
  <path
     class="london l"
     d="M 516.69239,1055.1937 519.52082,1055.8566 523.49829,1055.8787 521.86311,1059.2154 518.9242,1060.4086 516.40513,1060.2761 514.3722,1059.9446 z"
     id="Haringey" />
  <path
     class="london l"
     d="M 528.82369,1054.9286 525.07112,1051.5625 523.49829,1055.8787 521.86311,1059.2154 522.85748,1060.8285 524.11701,1060.7843 524.94612,1062.7656 528.5555,1061.4844 529.72737,1060.3906 527.80723,1057.757 z"
     id="Waltham Forest" />
  <path
     class="london l"
     d="M 525.07112,1051.5625 525.07112,1047.8125 514.69612,1047.1562 513.38362,1049.5312 516.69239,1055.1937 519.52082,1055.8566 523.49829,1055.8787 z"
     id="Enfield" />
  <path
     class="herts l"
     d="M 491.98785,1057.5139 485.82112,1040.9375 494.19612,1047 498.48439,1055.9008 z"
     id="Three Rivers" />
  <path
     class="herts l"
     d="M 494.19612,1047 L 496.00862,1046.125 L 497.82112,1044.4375 L 500.63362,1047.5 L 500.89297,1054.9507 L 498.48439,1055.9008 L 494.19612,1047 z"
     id="Watford" />
  <path
     class="herts l"
     d="M 500.63362,1047.5 L 508.38362,1042.8125 L 514.69612,1047.1562 L 513.38362,1049.5312 L 508.51647,1052.299 L 505.35659,1053.2271 L 500.89297,1054.9507 L 500.63362,1047.5 z"
     id="Hertsmere" />
  <path
     class="herts l"
     d="M 514.69612,1047.1562 L 518.50862,1041.875 L 526.44612,1038.6875 L 524.69612,1043.1875 L 525.07112,1047.8125 L 514.69612,1047.1562 z"
     id="Broxbourne" />
  <path
     class="herts l"
     d="M 518.50862,1041.875 515.82112,1037.875 513.82112,1031.0625 507.07112,1030.8125 508.38362,1042.8125 514.69612,1047.1562 z"
     id="Welwyn Hatfield" />
  <path
     class="essex l"
     d="M 524.69612,1043.1875 528.19612,1044.1875 536.25862,1038.1875 538.75862,1034.9375 547.9502,1033.6299 547.6527,1045.2679 539.90464,1047.5788 534.94612,1054 528.82369,1054.9286 525.07112,1051.5625 z"
     id="Epping Forest" />
  <path
     class="essex l"
     d="M 526.44612,1038.6875 L 536.82112,1031.9375 L 538.75862,1034.9375 L 536.25862,1038.1875 L 528.19612,1044.1875 L 524.69612,1043.1875 L 526.44612,1038.6875 z"
     id="Harlow" />
  <path
     class="essex l"
     d="M 547.6527,1045.2679 552.91487,1049.9688 552.16487,1059.5 547.47737,1059.75 541.57112,1052.6875 539.44612,1053.5 534.94612,1054 539.90464,1047.5788 z"
     id="Brentwood" />
  <path
     class="essex l"
     d="M 547.9502,1033.6299 559.50417,1025.3339 563.9562,1032.0032 563.88937,1050.1641 562.97737,1052.875 552.91487,1049.9688 547.6527,1045.2679 z"
     id="Chelmsford" />
  <path
     class="essex l"
     d="M 576.35453,1015.4411 574.74292,1024.7358 587.49146,1035.4169 599.68905,1034.7097 596.77223,1015.883 z"
     id="Colchester" />
  <path
     class="essex l"
     d="M 604.90396,1016.5901 612.32858,1015.9714 612.32858,1025.6941 599.68905,1034.7097 596.77223,1015.883 z"
     id="Tendring" />
  <path
     class="essex l"
     d="M 576.35453,1015.4411 574.74292,1024.7358 563.9562,1032.0032 559.50417,1025.3339 551.69418,1004.8345 562.03561,1004.2157 572.0235,1002.006 z"
     id="Braintree" />
  <path
     class="essex l"
     d="M 536.82112,1031.9375 533.92812,1024.987 529.95064,1011.6404 538.25915,1002.448 551.69418,1004.8345 559.50417,1025.3339 547.9502,1033.6299 538.75862,1034.9375 z"
     id="Uttlesford" />
  <path
     class="herts l"
     d="M 513.82112,1031.0625 L 520.75825,1023.6612 L 510.24004,1020.214 L 507.07112,1030.8125 L 513.82112,1031.0625 z"
     id="Stevenage" />
  <path
     class="herts l"
     d="M 521.56479,1015.1869 529.95064,1011.6404 533.92812,1024.987 536.82112,1031.9375 526.44612,1038.6875 518.50862,1041.875 515.82112,1037.875 513.82112,1031.0625 520.75825,1023.6612 z"
     id="East Hertfordshire" />
  <path
     class="herts l"
     d="M 507.85356,1015.6178 505.37868,1013.3197 497.77728,1017.2972 498.83794,1022.7773 502.63864,1029.8484 507.07112,1030.8125 510.24004,1020.214 520.75825,1023.6612 521.56479,1015.1869 529.95064,1011.6404 513.95235,1004.5693 z"
     id="North Hertfordshire" />
  <path
     class="herts l"
     d="M 496.00862,1046.125 497.82112,1044.4375 500.63362,1047.5 508.38362,1042.8125 507.07112,1030.8125 502.63864,1029.8484 500.25216,1032.4116 497.77728,1031.0858 z"
     id="St Albans" />
  <path
     class="herts l"
     d="M 497.77728,1031.0858 493.35787,1029.9368 487.7894,1032.6768 485.88362,1035 478.25862,1029.375 475.00862,1031.375 479.38362,1039.75 485.82112,1040.9375 494.19612,1047 496.00862,1046.125 z"
     id="Dacorum" />
  <path
     class="beds l"
     d="M 498.83794,1022.7773 491.23655,1022.1586 493.35787,1029.9368 497.77728,1031.0858 500.25216,1032.4116 502.63864,1029.8484 z"
     id="Luton" />
  <path
     class="bucks l"
     d="M 479.38362,1039.75 477.00602,1053.0061 491.98785,1057.5139 485.82112,1040.9375 z"
     id="Chiltern" />
  <path
     class="bucks l"
     d="M 479.38362,1039.75 463.65938,1042.7531 462.33356,1054.0668 465.33876,1063.0824 475.59181,1061.1378 477.00602,1053.0061 z"
     id="Wycombe" />
  <path
     class="bucks l"
     d="M 480.9835,1017.2088 476.47112,1015.2875 474.27112,1017.8875 466.27112,1010.2875 455.27112,1005.8875 449.47112,1012.4875 454.47112,1031.4875 449.0753,1036.7427 463.65938,1042.7531 479.38362,1039.75 475.00862,1031.375 478.25862,1029.375 485.88362,1035 487.7894,1032.6768 477.53635,1024.3683 z"
     id="Aylesbury Vale" />
  <path
     class="bucks l"
     d="M 468.59145,1005.9482 464.63165,1000.5741 480.04658,992.79596 482.45074,994.91728 480.9835,1017.2088 476.47112,1015.2875 474.27112,1017.8875 466.27112,1010.2875 z"
     id="Milton Keynes" />
  <path
     class="oxon l"
     d="M 449.47112,1012.4875 441.57997,1016.2719 434.93317,996.19008 421.85169,1015.2643 432.10474,1017.1204 437.31965,1032.1465 443.52843,1036.1177 449.0753,1036.7427 454.47112,1031.4875 z"
     id="Cherwell" />
  <path
     class="northants l"
     d="M 462.81665,986.01173 469.72282,983.32073 470.42993,975.54256 458.19698,962.03682 443.84271,971.44134 441.43855,986.432 434.93317,996.19008 z"
     id="Daventry" />
  <path
     class="northants l"
     d="M 469.72282,983.32073 472.24781,989.49988 463.06915,989.48035 462.81665,986.01173 z"
     id="Northampton" />
  <path
     class="beds l"
     d="M 482.45074,994.91728 491.70251,1000.1868 505.57399,999.53064 510.16933,996.04865 513.95235,1004.5693 507.85356,1015.6178 505.37868,1013.3197 497.77728,1017.2972 498.83794,1022.7773 491.23655,1022.1586 493.35787,1029.9368 487.7894,1032.6768 477.53635,1024.3683 480.9835,1017.2088 z"
     id="Central Bedfordshire" />
  <path
     class="suffolk l"
     d="M 596.77223,1015.883 610.43707,1014.4334 602.37605,1006.7967 598.84052,1006.7967 600.39616,1003.2611 571.48433,995.23106 572.0235,1002.006 576.35453,1015.4411 z"
     id="Babergh" />
  <path
     class="suffolk l"
     d="M 600.39616,1003.2611 L 604.92164,1000.7156 L 606.83083,1005.5946 L 606.26514,1007.8573 L 602.37605,1006.7967 L 598.84052,1006.7967 L 600.39616,1003.2611 z"
     id="Ipswich" />
  <path
     class="suffolk l"
     d="M 606.26514,1007.8573 614.32616,1016.1305 631.1553,998.87708 639.47112,964.6875 617.87112,969.0875 604.92164,1000.7156 606.83083,1005.5946 z"
     id="Suffolk Coastal" />
  <path
     class="suffolk l"
     d="M 617.87112,969.0875 613.77112,965.2875 596.17112,969.8875 592.7594,969.03718 587.80965,970.59281 571.48433,995.23106 600.39616,1003.2611 604.92164,1000.7156 z"
     id="Mid Suffolk" />
  <path
     class="suffolk l"
     d="M 639.47112,964.6875 L 639.37112,950.0875 L 631.57112,950.8875 L 634.87112,957.0875 L 618.87112,958.3875 L 613.77112,965.2875 L 617.87112,969.0875 L 639.47112,964.6875 z"
     id="Waveney" />
  <path
     class="norfolk l"
     d="M 631.57112,950.8875 L 632.57112,943.7875 L 625.37112,934.3875 L 633.77112,927.3875 L 638.37112,937.1875 L 639.37112,950.0875 L 631.57112,950.8875 z"
     id="Great Yarmouth" />
  <path
     class="norfolk l"
     d="M 625.37112,934.3875 608.07112,922.0875 572.98568,916.79061 573.17112,904.5875 608.07112,907.5875 633.77112,927.3875 625.37112,934.3875 z"
     id="North Norfolk" />
  <path
     class="norfolk l"
     d="M 599.67112,936.9875 603.17112,932.5875 615.57112,937.4875 611.57112,941.1875 604.6018,943.10847 z"
     id="Norwich" />
  <path
     class="norfolk l"
     d="M 594.46801,959.71993 592.7594,969.03718 596.17112,969.8875 613.77112,965.2875 618.87112,958.3875 634.87112,957.0875 631.57112,950.8875 632.57112,943.7875 626.27112,948.7875 611.57112,941.1875 604.6018,943.10847 599.67112,936.9875 z"
     id="South Norfolk" />
  <path
     class="suffolk l"
     d="M 572.0235,1002.006 571.48433,995.23106 587.80965,970.59281 569.99056,961.82469 562.20356,991.03261 551.49793,991.45699 551.69418,1004.8345 562.03561,1004.2157 z"
     id="St Edmundsbury" />
  <path
     class="suffolk l"
     d="M 569.99056,961.82469 551.32294,964.37027 551.49793,991.45699 562.20356,991.03261 z"
     id="Forest Heath" />
  <path
     class="norfolk l"
     d="M 599.67112,936.9875 573.64859,923.19876 569.77112,932.4875 569.99056,961.82469 587.80965,970.59281 592.7594,969.03718 594.46801,959.71993 z"
     id="Breckland" />
  <path
     class="norfolk l"
     d="M 573.17112,904.5875 555.14132,906.10467 542.13056,923.4995 533.92812,932.1262 539.01929,957.58205 551.32294,964.37027 569.99056,961.82469 569.77112,932.4875 573.64859,923.19876 572.98568,916.79061 z"
     id="King's Lynn and West Norfolk" />
  <path
     class="cambs l"
     d="M 551.32294,964.37027 539.01929,957.58205 527.13989,973.27982 551.49793,991.45699 z"
     id="East Cambridgeshire" />
  <path
     class="cambs l"
     d="M 530.81685,987.84622 532.1088,993.9653 537.78699,993.13668 535.34233,986.71485 z"
     id="Cambridge" />
  <path
     class="cambs l"
     d="M 523.32152,977.94672 510.16933,996.04865 513.95235,1004.5693 529.95064,1011.6404 538.25915,1002.448 537.78699,993.13668 532.1088,993.9653 530.81685,987.84622 535.34233,986.71485 537.78699,993.13668 538.25915,1002.448 551.69418,1004.8345 551.49793,991.45699 527.13989,973.27982 z"
     id="South Cambridgeshire" />
  <path
     class="beds l"
     d="M 480.04658,992.79596 485.56201,985.51276 491.07745,978.22956 510.16933,996.04865 505.57399,999.53064 491.70251,1000.1868 482.45074,994.91728 z"
     id="Bedford" />
  <path
     class="northants l"
     d="M 485.56201,985.51276 481.60222,973.8455 470.42993,975.54256 469.72282,983.32073 472.24781,989.49988 480.04658,992.79596 z"
     id="Wellingborough" />
  <path
     class="cambs l"
     d="M 491.07745,978.22956 495.88577,968.89575 499.70415,957.72347 513.19739,952.71811 527.13989,973.27982 523.32152,977.94672 510.16933,996.04865 z"
     id="Huntingdonshire" />
  <path
     class="northants l"
     d="M 495.88577,968.89575 499.70415,957.72347 489.66323,943.86417 479.76373,951.00595 483.90147,956.83774 478.08219,962.53949 481.60222,973.8455 485.56201,985.51276 491.07745,978.22956 z"
     id="East Northamptonshire" />
  <path
     class="cambs l"
     d="M 489.66323,943.86417 499.42131,941.17717 504.79532,943.72275 519.36172,937.92448 513.19739,952.71811 499.70415,957.72347 z"
     id="Peterborough" />
  <path
     class="cambs l"
     d="M 519.36172,937.92448 533.92812,932.1262 539.01929,957.58205 527.13989,973.27982 513.19739,952.71811 z"
     id="Fenland" />
  <path
     class="lincs l"
     d="M 542.13056,923.4995 524.45289,913.88285 505.21958,913.03432 499.42131,941.17717 504.79532,943.72275 519.36172,937.92448 533.92812,932.1262 z"
     id="South Holland" />
  <path
     class="lincs l"
     d="M 524.45289,913.88285 543.26193,892.24538 508.89654,896.48802 505.21958,913.03432 z"
     id="Boston" />
  <path
     class="lincs l"
     d="M 505.21958,913.03432 488.61198,915.6846 481.53562,904.42863 468.02577,904.69046 472.55125,910.913 478.63237,931.27767 489.66323,943.86417 499.42131,941.17717 z"
     id="South Kesteven" />
  <path
     class="northants l"
     d="M 469.86424,958.14773 465.76302,956.73352 458.19698,962.03682 470.42993,975.54256 481.60222,973.8455 478.08219,962.53949 z"
     id="Kettering" />
  <path
     class="leics l"
     d="M 469.86424,958.14773 464.30461,939.48011 455.08129,937.69908 450.25529,951.9959 434.93317,959.77408 443.84271,971.44134 458.19698,962.03682 465.76302,956.73352 z"
     id="Harborough" />
  <path
     class="leics l"
     d="M 455.08129,937.69908 441.23747,934.44197 440.04422,938.36642 446.50529,944.10528 z"
     id="Leicester" />
  <path
     class="leics l"
     d="M 450.25529,951.9959 446.50529,944.10528 440.04422,938.36642 432.80743,952.23013 434.93317,959.77408 z"
     id="Blaby" />
  <path
     class="leics l"
     d="M 455.08129,937.69908 453.38866,925.12584 468.02577,904.69046 472.55125,910.913 478.63237,931.27767 464.30461,939.48011 z"
     id="Melton" />
  <path
     class="leics l"
     d="M 453.38866,925.12584 438.68083,925.97437 433.0284,929.36406 437.33733,936.15671 440.04422,938.36642 441.23747,934.44197 455.08129,937.69908 z"
     id="Charnwood" />
  <path
     class="leics l"
     d="M 464.30461,939.48011 469.86424,958.14773 479.76373,951.00595 489.66323,943.86417 478.63237,931.27767 z"
     id="Rutland" />
  <path
     class="lincs l"
     d="M 482.02648,877.39614 L 490.93603,879.37604 L 486.55196,885.45715 L 479.90516,882.20446 L 482.02648,877.39614 z"
     id="Lincoln" />
  <path
     class="lincs l"
     d="M 490.93603,879.37604 502.39116,884.32578 508.89654,896.48802 505.21958,913.03432 488.61198,915.6846 481.53562,904.42863 468.02577,904.69046 476.93531,877.25472 482.02648,877.39614 479.90516,882.20446 486.55196,885.45715 z"
     id="North Kesteven" />
  <path
     class="lincs l"
     d="M 543.96903,880.22456 533.07959,853.63735 521.05877,846.14202 512.71491,855.90009 502.55304,867.45669 502.39116,884.32578 508.89654,896.48802 543.26193,892.24538 z"
     id="East Lindsey" />
  <path
     class="humbs l"
     d="M 521.05877,846.14202 516.81613,841.33369 512.71491,838.64669 506.49238,832.42415 501.40121,837.65674 507.3409,842.18222 507.19948,851.51603 512.71491,855.90009 z"
     id="North East Lincolnshire" />
  <path
     class="lincs l"
     d="M 476.93531,877.25472 470.00566,872.16355 468.16719,855.19298 471.84414,847.69765 501.40121,837.65674 507.3409,842.18222 507.19948,851.51603 512.71491,855.90009 502.55304,867.45669 502.39116,884.32578 490.93603,879.37604 482.02648,877.39614 z"
     id="West Lindsey" />
  <path
     class="notts l"
     d="M 470.00566,872.16355 453.31794,876.68903 446.36841,884.86937 444.39072,895.10032 454.87358,906.81178 459.96475,902.9934 468.02577,904.69046 476.93531,877.25472 z"
     id="Newark and Sherwood" />
  <path
     class="notts l"
     d="M 459.96475,902.9934 454.87358,906.81178 450.06525,910.48873 441.57997,916.28701 439.31723,917.27696 438.04444,919.25686 438.68083,925.97437 453.38866,925.12584 468.02577,904.69046 z"
     id="Rushcliffe" />
  <path
     class="leics l"
     d="M 437.33733,936.15671 420.08393,941.88428 419.65966,950.36956 425.59936,954.32935 434.93317,959.77408 432.80743,952.23013 440.04422,938.36642 z"
     id="Hinckley and Bosworth" />
  <path
     class="warks l"
     d="M 429.40445,981.1875 416.90445,991.1875 398.23779,980.35417 398.57112,974.6875 413.57112,975.35417 416.57112,972.35417 425.90445,974.02083 z"
     id="Warwick" />
  <path
     class="warks l"
     d="M 416.90445,991.1875 398.23779,980.35417 393.73779,992.85417 405.69612,1002.5625 412.74769,1016.1482 421.85169,1015.2643 434.93317,996.19008 441.43855,986.432 429.40445,981.1875 z"
     id="Stratford-on-Avon" />
  <path
     class="hereworcs l"
     d="M 398.23779,980.35417 L 391.73779,979.35417 L 389.07112,984.52083 L 388.40445,991.6875 L 393.73779,992.85417 L 398.23779,980.35417 z"
     id="Redditch" />
  <path
     class="hereworcs l"
     d="M 374.57112,989.1875 L 371.57112,995.02083 L 376.73779,997.6875 L 379.40445,991.6875 L 374.57112,989.1875 z"
     id="Worcester" />
  <path
     class="hereworcs l"
     d="M 389.07112,984.52083 380.57112,976.35417 371.73779,978.35417 374.57112,989.1875 379.40445,991.6875 376.73779,997.6875 395.57112,1010.1875 400.69612,1013.8125 405.69612,1002.5625 393.73779,992.85417 388.40445,991.6875 389.07112,984.52083 z"
     id="Wychavon" />
  <path
     class="hereworcs l"
     d="M 371.73779,978.35417 364.17843,981.31947 356.62846,973.03903 365.07112,972.1875 370.23779,965.6875 379.23779,968.1875 380.57112,976.35417 z"
     id="Wyre Forest" />
  <path
     class="hereworcs l"
     d="M 371.73779,978.35417 364.17843,981.31947 356.62846,973.03903 348.18581,973.89055 359.57112,985.1875 366.40445,1013.1875 378.44612,1014.4375 395.57112,1010.1875 376.73779,997.6875 371.57112,995.02083 374.57112,989.1875 z"
     id="Malvern Hills" />
  <path
     class="gloucs l"
     d="M 366.40445,1013.1875 L 356.90445,1019.0208 L 345.57112,1033.1875 L 344.90445,1057.0208 L 352.82112,1050 L 369.82112,1033.8125 L 372.07112,1027.3125 L 378.44612,1014.4375 L 366.40445,1013.1875 z"
     id="Forest of Dean" />
  <path
     class="mglamgwent l"
     d="M 344.90445,1057.0208 340.23779,1060.1875 332.40445,1053.1875 327.90445,1055.6875 322.73779,1054.8542 322.23779,1045.0208 313.57112,1036.3542 311.40445,1033.8542 319.23779,1026.5208 317.57112,1016.3542 345.57112,1033.1875 344.90445,1057.0208 z"
     id="Monmouthshire" />
  <path
     class="powys l"
     d="M 315.40445,1001.5208 325.90445,976.35417 307.23779,964.52083 321.57112,959.35417 320.73779,941.35417 322.90445,930.85417 311.57112,925.52083 291.57112,919.02083 262.07112,950.35417 277.07112,973.1875 272.07112,999.02083 278.73779,1008.8542 267.73779,1036.1875 282.07112,1039.6875 292.40445,1033.1875 301.40445,1036.5208 311.40445,1033.8542 319.23779,1026.5208 317.57112,1016.3542 z"
     id="Powys" />
  <path
     class="hereworcs l"
     d="M 325.90445,976.35417 348.18581,973.89055 359.57112,985.1875 366.40445,1013.1875 356.90445,1019.0208 345.57112,1033.1875 317.57112,1016.3542 315.40445,1001.5208 z"
     id="Herefordshire, County of" />
  <path
     class="shrops l"
     d="M 370.23779,965.6875 369.40445,947.35417 362.40445,943.85417 356.57112,945.6875 345.57112,931.1875 362.45472,924.04751 365.28315,903.98335 360.86373,907.34211 341.59507,907.16533 337.70599,917.59516 321.61931,909.28665 311.57112,925.52083 322.90445,930.85417 320.73779,941.35417 321.57112,959.35417 307.23779,964.52083 325.90445,976.35417 348.18581,973.89055 356.62846,973.03903 365.07112,972.1875 z"
     id="Shropshire" />
  <path
     class="dyfed l"
     d="M 262.07112,950.35417 L 248.57112,952.35417 L 242.40445,982.85417 L 208.23779,998.85417 L 217.40445,1007.0208 L 272.07112,999.02083 L 277.07112,973.1875 L 262.07112,950.35417 z"
     id="Ceredigion" />
  <path
     class="gwynned l"
     d="M 262.07112,950.35417 248.57112,952.35417 250.90445,911.52083 213.23779,931.52083 205.07112,920.6875 235.85591,894.61993 258.39493,872.52284 268.07688,898.71753 292.90445,906.52083 291.57112,919.02083 z"
     id="Gwynedd" />
  <path
     class="gwynned l"
     d="M 256.57112,870.02083 234.23779,888.35417 212.73779,868.02083 233.73779,852.85417 256.57112,870.02083 z"
     id="Isle of Anglesey" />
  <path
     class="mglamgwent l"
     d="M 323.446,1063.0824 316.02138,1068.5035 315.31427,1065.2037 313.0751,1063.5538 315.19642,1058.604 318.02485,1056.6006 322.73779,1054.8542 327.90445,1055.6875 332.40445,1053.1875 340.23779,1060.1875 325.44947,1066.3822 z"
     id="Newport" />
  <path
     class="sglam l"
     d="M 316.02138,1068.5035 309.65742,1077.5191 307.35932,1072.4515 300.4061,1067.8554 304.35412,1065.2037 305.53263,1062.8467 313.0751,1063.5538 315.31427,1065.2037 z"
     id="Cardiff" />
  <path
     class="sglam l"
     d="M 300.4061,1067.8554 L 293.57074,1067.6197 L 286.91215,1067.2661 L 281.9624,1076.2228 L 283.43554,1078.9923 L 301.34891,1080.8779 L 309.65742,1077.5191 L 307.35932,1072.4515 L 300.4061,1067.8554 z"
     id="Vale of Glamorgan" />
  <path
     class="mglamgwent l"
     d="M 286.91215,1067.2661 293.57074,1067.6197 291.21372,1057.2488 283.78909,1052.4169 277.36621,1051.8276 274.77348,1056.6006 276.95373,1061.1968 269.76481,1064.2609 272.77001,1070.8016 276.60018,1070.3891 281.9624,1076.2228 z"
     id="Bridgend" />
  <path
     class="mglamgwent l"
     d="M 300.70073,1052.5936 302.88097,1045.2868 301.40445,1036.5208 314.01791,1048.351 318.02485,1056.6006 315.19642,1058.604 313.0751,1063.5538 305.53263,1062.8467 z"
     id="Caerphilly" />
  <path
     class="mglamgwent l"
     d="M 311.40445,1033.8542 L 315.01964,1043.4602 L 314.01791,1048.351 L 318.02485,1056.6006 L 322.73779,1054.8542 L 322.23779,1045.0208 L 311.40445,1033.8542 z"
     id="Torfaen" />
  <path
     class="mglamgwent l"
     d="M 301.40445,1036.5208 302.88097,1045.2868 300.70073,1052.5936 291.97975,1039.9836 292.40445,1033.1875 z"
     id="Merthyr Tydfil" />
  <path
     class="mglamgwent l"
     d="M 282.07112,1039.6875 282.55166,1044.8744 283.78909,1052.4169 291.21372,1057.2488 293.57074,1067.6197 300.4061,1067.8554 304.35412,1065.2037 305.53263,1062.8467 300.70073,1052.5936 291.97975,1039.9836 292.40445,1033.1875 z"
     id="Rhondda Cynon Taf" />
  <path
     class="mglamgwent l"
     d="M 301.40445,1036.5208 311.40445,1033.8542 315.01964,1043.4602 314.01791,1048.351 z"
     id="Blaenau Gwent" />
  <path
     class="hereworcs l"
     d="M 398.57112,974.6875 L 400.32112,971.125 L 398.69612,970.5625 L 395.69612,970.4375 L 390.13362,973.0625 L 387.69612,970.6875 L 390.63362,969.0625 L 388.44612,967.375 L 383.57112,966.25 L 379.23779,968.1875 L 380.57112,976.35417 L 389.07112,984.52083 L 391.73779,979.35417 L 398.23779,980.35417 L 398.57112,974.6875 z"
     id="Bromsgrove" />
  <path
     class="birm l"
     d="M 404.94612,958 406.32112,958.6875 411.75862,966.875 416.82112,964.375 416.57112,972.35417 413.57112,975.35417 398.57112,974.6875 400.32112,971.125 398.69612,970.5625 402.32112,965.9375 406.07112,965.4375 406.07112,960.1875 403.69612,959.0625 z"
     id="Solihull" />
  <path
     class="warks l"
     d="M 419.65966,950.36956 416.82112,964.375 425.75862,964.4375 425.59936,954.32935 z"
     id="Nuneaton and Bedworth" />
  <path
     class="birm l"
     d="M 416.82112,964.375 425.75862,964.4375 427.69612,970.375 425.90445,974.02083 416.57112,972.35417 z"
     id="Coventry" />
  <path
     class="birm l"
     d="M 402.32112,965.9375 398.69612,970.5625 395.69612,970.4375 390.13362,973.0625 387.69612,970.6875 390.63362,969.0625 388.44612,967.375 389.05962,964.22001 395.20261,954.85085 398.2962,950.69659 400.5943,948.17752 403.95305,950.38723 408.23989,957.41411 406.32112,958.6875 404.94612,958 403.69612,959.0625 406.07112,960.1875 406.07112,965.4375 z"
     id="Birmingham" />
  <path
     class="birm l"
     d="M 378.67399,963.24774 377.0388,959.88898 380.0882,958.47477 380.88369,954.01116 385.08214,954.85085 385.61247,960.5077 383.62373,963.02677 389.05962,964.22001 388.44612,967.375 383.57112,966.25 379.23779,968.1875 z"
     id="Dudley" />
  <path
     class="birm l"
     d="M 385.08214,954.85085 389.89931,953.08308 395.20261,954.85085 389.05962,964.22001 383.62373,963.02677 385.61247,960.5077 z"
     id="Sandwell" />
  <path
     class="birm l"
     d="M 386.58474,947.11686 382.87243,945.08393 379.3369,946.71912 376.02234,950.91756 380.88369,954.01116 385.08214,954.85085 z"
     id="Wolverhampton" />
  <path
     class="birm l"
     d="M 386.58474,947.11686 390.739,944.95135 392.77193,942.34389 396.08649,944.42102 398.2962,950.69659 395.20261,954.85085 389.89931,953.08308 385.08214,954.85085 z"
     id="Walsall" />
  <path
     class="staffs l"
     d="M 369.40445,947.35417 374.56393,943.051 385.52408,937.39415 390.739,944.95135 386.58474,947.11686 382.87243,945.08393 379.3369,946.71912 376.02234,950.91756 380.88369,954.01116 380.0882,958.47477 377.0388,959.88898 378.67399,963.24774 379.23779,968.1875 370.23779,965.6875 369.40445,947.35417 z"
     id="South Staffordshire" />
  <path
     class="warks l"
     d="M 403.95305,950.38723 412.74769,949.76852 416.90195,938.98514 420.08393,941.88428 419.65966,950.36956 416.82112,964.375 411.75862,966.875 406.32112,958.6875 408.23989,957.41411 z"
     id="North Warwickshire" />
  <path
     class="staffs l"
     d="M 416.90195,938.98514 408.947,934.91927 407.53278,943.40455 412.74769,949.76852 z"
     id="Tamworth" />
  <path
     class="staffs l"
     d="M 408.947,934.91927 393.56742,930.32308 392.77193,942.34389 396.08649,944.42102 398.2962,950.69659 400.5943,948.17752 403.95305,950.38723 412.74769,949.76852 407.53278,943.40455 z"
     id="Lichfield" />
  <path
     class="staffs l"
     d="M 393.56742,930.32308 385.52408,937.39415 390.739,944.95135 392.77193,942.34389 z"
     id="Cannock Chase" />
  <path
     class="staffs l"
     d="M 384.72859,908.40277 377.48074,911.40797 362.45472,924.04751 369.26063,933.947 368.28836,938.98514 374.56393,943.051 385.52408,937.39415 393.56742,930.32308 z"
     id="Stafford" />
  <path
     class="shrops l"
     d="M 369.26063,933.947 362.45472,924.04751 345.57112,931.1875 356.57112,945.6875 362.40445,943.85417 369.40445,947.35417 374.56393,943.051 368.28836,938.98514 z"
     id="Telford and Wrekin" />
  <path
     class="staffs l"
     d="M 393.56742,930.32308 384.72859,908.40277 406.38373,900.80137 399.66622,913.88285 406.6489,919.89325 418.49294,924.66622 408.947,934.91927 z"
     id="East Staffordshire" />
  <path
     class="leics l"
     d="M 438.04444,919.25686 433.60734,919.00937 416.90195,938.98514 420.08393,941.88428 437.33733,936.15671 433.0284,929.36406 438.68083,925.97437 z"
     id="North West Leicestershire" />
  <path
     class="derbys l"
     d="M 433.60734,919.00937 430.07181,915.38545 424.28551,917.5227 419.99554,913.70607 406.6489,919.89325 418.49294,924.66622 408.947,934.91927 416.90195,938.98514 z"
     id="South Derbyshire" />
  <path
     class="derbys l"
     d="M 430.07181,915.38545 429.09954,910.70087 423.88463,909.19826 419.99554,913.70607 424.28551,917.5227 z"
     id="Derby" />
  <path
     class="derbys l"
     d="M 439.31723,917.27696 435.10995,904.51368 423.88463,909.19826 429.09954,910.70087 430.07181,915.38545 433.60734,919.00937 438.04444,919.25686 z"
     id="Erewash" />
  <path
     class="notts l"
     d="M 441.57997,916.28701 441.29713,904.16013 435.10995,904.51368 439.31723,917.27696 z"
     id="Broxtowe" />
  <path
     class="notts l"
     d="M 446.42365,904.60207 441.29713,904.16013 441.57997,916.28701 450.06525,910.48873 z"
     id="Nottingham" />
  <path
     class="notts l"
     d="M 446.42365,904.60207 441.29713,904.16013 444.39072,895.10032 454.87358,906.81178 450.06525,910.48873 z"
     id="Gedling" />
  <path
     class="notts l"
     d="M 441.29713,904.16013 444.39072,895.10032 438.29193,887.27795 433.78412,896.29356 435.10995,904.51368 z"
     id="Ashfield" />
  <path
     class="notts l"
     d="M 444.39072,895.10032 446.36841,884.86937 442.09263,884.97986 438.29193,887.27795 z"
     id="Mansfield" />
  <path
     class="derbys l"
     d="M 433.78412,896.29356 424.14979,891.87415 417.32213,909.43263 419.99554,913.70607 423.88463,909.19826 435.10995,904.51368 z"
     id="Amber Valley" />
  <path
     class="derbys l"
     d="M 434.55174,882.38182 434.19527,874.13429 436.25899,870.92611 442.88812,871.10289 442.09263,884.97986 438.29193,887.27795 433.78412,896.29356 z"
     id="Bolsover" />
  <path
     class="derbys l"
     d="M 434.19527,874.13429 426.85506,875.81259 423.61946,881.09077 434.55174,882.38182 z"
     id="Chesterfield" />
  <path
     class="derbys l"
     d="M 424.14979,891.87415 415.84129,871.89838 422.11686,870.48417 428.21565,868.36285 434.13767,869.24673 436.25899,870.92611 434.19527,874.13429 426.85506,875.81259 423.61946,881.09077 434.55174,882.38182 433.78412,896.29356 z"
     id="North East Derbyshire" />
  <path
     class="syorks l"
     d="M 415.84129,871.89838 407.96783,858.84248 425.43119,853.17536 434.13767,869.24673 428.21565,868.36285 422.11686,870.48417 z"
     id="Sheffield" />
  <path
     class="syorks l"
     d="M 425.43119,853.17536 432.45078,848.1674 447.66109,860.67306 442.88812,871.10289 436.25899,870.92611 434.13767,869.24673 z"
     id="Rotherham" />
  <path
     class="derbys l"
     d="M 415.84129,871.89838 396.66101,883.56564 406.38373,900.80137 399.66622,913.88285 406.6489,919.89325 419.99554,913.70607 417.32213,909.43263 424.14979,891.87415 z"
     id="Derbyshire Dales" />
  <path
     class="derbys l"
     d="M 401.16882,848.2103 L 395.77713,846.53093 L 391.97643,849.80129 L 388.70606,858.55174 L 388.97123,865.88797 L 391.26933,881.00238 L 396.66101,883.56564 L 415.84129,871.89838 L 407.96783,858.84248 L 401.16882,848.2103 z"
     id="High Peak" />
  <path
     class="notts l"
     d="M 468.16719,855.19298 459.41674,850.15485 447.66109,860.67306 442.88812,871.10289 442.09263,884.97986 446.36841,884.86937 453.31794,876.68903 470.00566,872.16355 z"
     id="Bassetlaw" />
  <path
     class="humbs l"
     d="M 488.39044,828.74719 472.32144,827.88098 460.91934,825.93644 451.3734,833.18428 463.83616,835.12883 461.71484,841.05085 459.41674,850.15485 468.16719,855.19298 471.84414,847.69765 501.40121,837.65674 506.49238,832.42415 500.26984,826.20161 z"
     id="North Lincolnshire" />
  <path
     class="syorks l"
     d="M 461.71484,841.05085 463.83616,835.12883 451.3734,833.18428 439.79453,837.42693 427.8621,839.45986 432.45078,848.1674 447.66109,860.67306 459.41674,850.15485 z"
     id="Doncaster" />
  <path
     class="syorks l"
     d="M 422.5588,839.72502 415.66451,841.80214 408.77022,843.87927 401.16882,848.2103 407.96783,858.84248 425.43119,853.17536 432.45078,848.1674 427.8621,839.45986 z"
     id="Barnsley" />
  <path
     class="clwyd l"
     d="M 294.44612,886.9375 290.94612,870.1875 274.57112,868.52083 258.39493,872.52284 268.07688,898.71753 292.90445,906.52083 z"
     id="Conwy" />
  <path
     class="clwyd l"
     d="M 290.94612,870.1875 300.69612,866.3125 305.94612,884.8125 321.08898,894.79096 313.73257,913.20357 291.57112,919.02083 292.90445,906.52083 294.44612,886.9375 z"
     id="Denbighshire" />
  <path
     class="clwyd l"
     d="M 300.69612,866.3125 318.19612,879.0625 322.69612,877.9375 329.57112,884.9375 326.57112,890.6875 321.08898,894.79096 305.94612,884.8125 z"
     id="Flintshire" />
  <path
     class="clwyd l"
     d="M 326.57112,890.6875 331.69612,893.4375 332.22591,902.03881 341.59507,907.16533 337.70599,917.59516 321.61931,909.28665 311.57112,925.52083 291.57112,919.02083 313.73257,913.20357 321.08898,894.79096 z"
     id="Wrexham" />
  <path
     class="cheshire l"
     d="M 340.38362,871.125 338.19612,872.5625 328.69612,871.5625 317.94612,871.4375 322.69612,877.9375 329.57112,884.9375 326.57112,890.6875 331.69612,893.4375 332.22591,902.03881 341.59507,907.16533 360.86373,907.34211 342.868,896.57812 361.24299,882.9375 350.88362,869.875 z"
     id="Cheshire West and Chester" />
  <path
     class="cheshire l"
     d="M 344.68867,863.14793 341.10894,861.115 335.80564,868.62801 344.50278,866.5067 340.38362,871.125 350.88362,869.875 z"
     id="Halton" />
  <path
     class="staffs l"
     d="M 369.07112,896.6875 371.55872,896.73551 374.38715,898.14972 377.48074,911.40797 362.45472,924.04751 365.28315,903.98335 z"
     id="Newcastle-under-Lyme" />
  <path
     class="staffs l"
     d="M 379.94704,896.94246 374.38715,898.14972 377.48074,911.40797 384.72859,908.40277 z"
     id="Stoke-on-Trent" />
  <path
     class="staffs l"
     d="M 371.55872,896.73551 380.57434,885.4218 391.26933,881.00238 396.66101,883.56564 406.38373,900.80137 384.72859,908.40277 379.94704,896.94246 374.38715,898.14972 z"
     id="Staffordshire Moorlands" />
  <path
     class="cheshire l"
     d="M 377.92268,869.33512 374.0336,865.97636 369.4374,866.24153 362.10117,863.32471 350.88362,869.875 361.24299,882.9375 342.868,896.57812 360.86373,907.34211 365.28315,903.98335 369.07112,896.6875 371.55872,896.73551 380.57434,885.4218 391.26933,881.00238 388.97123,865.88797 382.69566,865.88797 z"
     id="Cheshire East" />
  <path
     class="manch l"
     d="M 388.70606,858.55174 377.70171,857.88883 374.0336,865.97636 377.92268,869.33512 382.69566,865.88797 388.97123,865.88797 z"
     id="Stockport" />
  <path
     class="manch l"
     d="M 391.97643,849.80129 383.10445,846.18842 378.01107,847.92304 377.70171,857.88883 388.70606,858.55174 z"
     id="Tameside" />
  <path
     class="manch l"
     d="M 377.70171,857.88883 378.01107,847.92304 373.50327,848.69644 372.531,853.86716 370.32129,857.80044 369.4374,866.24153 374.0336,865.97636 z"
     id="Manchester" />
  <path
     class="manch l"
     d="M 360.55437,860.05434 358.65403,862.08727 362.10117,863.32471 369.4374,866.24153 370.32129,857.80044 372.531,853.86716 368.33255,852.98327 z"
     id="Trafford" />
  <path
     class="cheshire l"
     d="M 358.65403,862.08727 360.55437,860.05434 357.10723,852.7623 352.20168,856.12106 345.30738,856.51881 346.10288,860.31951 344.68867,863.14793 350.88362,869.875 362.10117,863.32471 z"
     id="Warrington" />
  <path
     class="manch l"
     d="M 368.33255,852.98327 372.531,853.86716 373.50327,848.69644 369.39321,847.90095 358.65403,847.10545 357.10723,852.7623 360.55437,860.05434 z"
     id="Salford" />
  <path
     class="mersey l"
     d="M 333.24238,855.50234 329.49692,851.24313 322.32641,854.57426 324.18257,857.13753 328.82296,865.53442 333.99368,869.4677 335.80564,868.62801 z"
     id="Liverpool" />
  <path
     class="mersey l"
     d="M 337.30824,857.44689 335.93822,852.0552 331.93864,848.74063 329.49692,851.24313 333.24238,855.50234 335.80564,868.62801 341.10894,861.115 z"
     id="Knowsley" />
  <path
     class="mersey l"
     d="M 350.03616,853.07166 342.21379,848.16611 337.92696,847.41481 335.93822,852.0552 337.30824,857.44689 341.10894,861.115 344.68867,863.14793 346.10288,860.31951 345.30738,856.51881 352.20168,856.12106 z"
     id="St. Helens" />
  <path
     class="manch l"
     d="M 365.32735,836.05691 359.09597,837.86887 356.40012,836.89659 349.06389,840.29955 352.37845,845.42607 358.65403,847.10545 369.39321,847.90095 366.63108,843.64725 z"
     id="Bolton" />
  <path
     class="manch l"
     d="M 349.06389,840.29955 345.08641,839.1505 343.93737,843.61411 342.21379,848.16611 350.03616,853.07166 352.20168,856.12106 357.10723,852.7623 358.65403,847.10545 352.37845,845.42607 z"
     id="Wigan" />
  <path
     class="manch l"
     d="M 395.77713,846.53093 389.41317,838.08984 387.6896,836.63143 379.69045,841.84634 378.01107,847.92304 383.10445,846.18842 391.97643,849.80129 z"
     id="Oldham" />
  <path
     class="wyorks l"
     d="M 408.77022,843.87927 415.66451,841.80214 412.46174,828.78126 407.16487,822.35937 401.85238,824.46874 403.243,828.39063 389.41317,838.08984 395.77713,846.53093 401.16882,848.2103 z"
     id="Kirklees" />
  <path
     class="mersey l"
     d="M 321.79608,845.73543 322.69612,840.625 327.82112,835.0625 327.94612,828.5625 323.82112,832.5625 319.25862,840.5625 317.82112,845.375 320.55865,847.67997 322.32641,854.57426 329.49692,851.24313 331.93864,848.74063 327.93907,845.42607 z"
     id="Sefton" />
  <path
     class="lancs l"
     d="M 327.82112,835.0625 327.94612,828.5625 334.25862,824.4375 339.78321,829.79204 337.32112,836.625 345.08641,839.1505 343.93737,843.61411 342.21379,848.16611 337.92696,847.41481 335.93822,852.0552 331.93864,848.74063 327.93907,845.42607 321.79608,845.73543 322.69612,840.625 z"
     id="West Lancashire" />
  <path
     class="lancs l"
     d="M 340.44612,822.5 338.4134,815.87131 348.42998,813.32896 349.56386,821.28985 z"
     id="Preston" />
  <path
     class="lancs l"
     d="M 353.44612,823.0625 356.40012,836.89659 349.06389,840.29955 345.08641,839.1505 337.32112,836.625 339.78321,829.79204 z"
     id="Chorley" />
  <path
     class="manch l"
     d="M 372.17744,838.17823 369.94612,832.0625 365.32735,836.05691 366.63108,843.64725 369.39321,847.90095 373.50327,848.69644 z"
     id="Bury" />
  <path
     class="lancs l"
     d="M 368.94612,829.625 370.07112,823.625 378.57112,826.375 380.38362,831.0625 376.59686,833.97978 372.17744,838.17823 369.94612,832.0625 z"
     id="Rossendale" />
  <path
     class="manch l"
     d="M 380.38362,831.0625 386.75862,830.5625 387.6896,836.63143 379.69045,841.84634 378.01107,847.92304 373.50327,848.69644 372.17744,838.17823 376.59686,833.97978 z"
     id="Rochdale" />
  <path
     class="lancs l"
     d="M 334.25862,824.4375 340.44612,822.5 349.56386,821.28985 353.44612,823.0625 339.78321,829.79204 z"
     id="South Ribble" />
  <path
     class="lancs l"
     d="M 359.82112,820.0625 L 364.25862,816.25 L 367.82112,818.5625 L 370.07112,823.625 L 368.94612,829.625 L 361.75862,826.75 L 359.82112,820.0625 z"
     id="Hyndburn" />
  <path
     class="lancs l"
     d="M 367.82112,818.5625 L 369.88362,815.875 L 382.63362,817.1875 L 378.57112,826.375 L 370.07112,823.625 L 367.82112,818.5625 z"
     id="Burnley" />
  <path
     class="wyorks l"
     d="M 382.63362,817.1875 386.32112,815.0625 401.85238,824.46874 403.243,828.39063 389.41317,838.08984 387.6896,836.63143 386.75862,830.5625 380.38362,831.0625 378.57112,826.375 z"
     id="Calderdale" />
  <path
     class="wyorks l"
     d="M 412.46174,828.78126 435.13362,824.125 442.07112,829.0625 438.19612,834.1875 439.79453,837.42693 427.8621,839.45986 422.5588,839.72502 415.66451,841.80214 z"
     id="Wakefield" />
  <path
     class="wyorks l"
     d="M 407.16487,822.35937 412.46174,828.78126 435.13362,824.125 434.82112,806.0625 432.44612,801.75 426.69612,804.25 424.07112,806 418.63362,806.0625 407.57112,805.375 404.57893,809.99219 z"
     id="Leeds" />
  <path
     class="wyorks l"
     d="M 404.00862,804.25 395.07112,800 386.88362,812.1875 386.32112,815.0625 401.85238,824.46874 407.16487,822.35937 404.57893,809.99219 407.57112,805.375 z"
     id="Bradford" />
  <path
     class="lancs l"
     d="M 386.88362,812.1875 L 377.75862,801.3125 L 369.88362,815.875 L 382.63362,817.1875 L 386.32112,815.0625 L 386.88362,812.1875 z"
     id="Pendle" />
  <path
     class="lancs l"
     d="M 377.75862,801.3125 359.71469,790.5811 348.31258,807.37488 348.42998,813.32896 349.56386,821.28985 353.44612,823.0625 359.82112,820.0625 364.25862,816.25 367.82112,818.5625 369.88362,815.875 z"
     id="Ribble Valley" />
  <path
     class="lancs l"
     d="M 330.59072,813.45159 324.80129,813.91562 326.12711,820.10281 321.26575,820.1912 323.9174,824.52223 334.25862,824.4375 340.44612,822.5 338.4134,815.87131 z"
     id="Fylde" />
  <path
     class="lancs l"
     d="M 324.80129,813.91562 326.83422,808.70071 324.53612,803.66258 321.97286,804.19291 321.53092,815.41823 321.26575,820.1912 326.12711,820.10281 z"
     id="Blackpool" />
  <path
     class="lancs l"
     d="M 326.83422,808.70071 325.68517,803.39741 333.55173,800.74576 336.29177,796.06118 330.28137,792.8792 338.05954,782.80293 334.70078,775.82025 346.45643,777.41124 357.82627,772.73687 353.61589,782.00743 359.71469,790.5811 348.31258,807.37488 z"
     id="Lancaster" />
  <path
     class="nyorks l"
     d="M 388.94612,777.1875 369.19612,768.0625 357.82627,772.73687 353.61589,782.00743 359.71469,790.5811 377.75862,801.3125 386.88362,812.1875 395.07112,800 z"
     id="Craven" />
  <path
     class="nyorks l"
     d="M 407.94612,770.53125 437.94612,792.46875 439.72737,802.75 434.82112,806.0625 432.44612,801.75 426.69612,804.25 424.07112,806 418.63362,806.0625 407.57112,805.375 404.00862,804.25 395.07112,800 388.94612,777.1875 z"
     id="Harrogate" />
  <path
     class="nyorks l"
     d="M 458.00253,811.35236 439.72737,802.75 434.82112,806.0625 435.13362,824.125 442.07112,829.0625 438.19612,834.1875 439.79453,837.42693 451.3734,833.18428 460.91934,825.93644 z"
     id="Selby" />
  <path
     class="humbs l"
     d="M 498.04245,823.37318 503.96447,823.06382 500.38474,817.36277 495.49023,817.47325 489.38039,825.75966 z"
     id="Kingston upon Hull, City of" />
  <path
     class="humbs l"
     d="M 503.96447,823.06382 514.92462,835.65916 529.59709,836.71982 506.61612,799.15477 504.69612,785.9375 514.07112,782.0625 504.69612,777.0625 496.30197,781.06726 459.07112,796.5625 458.00253,811.35236 460.91934,825.93644 472.32144,827.88098 489.38039,825.75966 495.49023,817.47325 500.38474,817.36277 z"
     id="East Riding of Yorkshire" />
  <path
     class="nyorks l"
     d="M 496.30197,781.06726 480.35842,768.2055 477.53987,754.40625 449.82112,750.3125 434.50862,753.75 436.22737,770.53125 448.97737,787.1875 459.07112,796.5625 z"
     id="Ryedale" />
  <path
     class="nyorks l"
     d="M 498.69612,770.3125 483.94612,745.5625 466.94612,734.3125 451.32112,741.1875 449.82112,750.3125 477.53987,754.40625 480.35842,768.2055 496.30197,781.06726 504.69612,777.0625 z"
     id="Scarborough" />
  <path
     class="nyorks l"
     d="M 416.82112,741.4375 414.19612,738.9375 408.69612,737.1875 394.07112,746.8125 379.32112,745.9375 366.32112,757.3125 369.19612,768.0625 388.94612,777.1875 407.94612,770.53125 z"
     id="Richmondshire" />
  <path
     class="durcle l"
     d="M 425.21045,708.73349 420.87942,704.40246 420.79103,700.60176 417.16711,699.80627 408.59344,696.80106 400.63849,697.33139 395.15841,705.02118 370.2329,709.61737 369.4374,716.86522 379.32112,745.9375 394.07112,746.8125 408.69612,737.1875 414.19612,738.9375 417.92716,732.47779 427.38243,731.04299 428.75862,725.6875 436.75862,716.5625 430.86731,702.01598 z"
     id="County Durham" />
  <path
     class="cumbria l"
     d="M 366.32112,757.3125 325.15484,740.81846 315.78568,745.59143 311.36626,767.15819 312.6037,771.75438 322.14964,773.69893 325.33162,781.65388 334.70078,775.82025 346.45643,777.41124 357.82627,772.73687 369.19612,768.0625 z"
     id="South Lakeland" />
  <path
     class="cumbria l"
     d="M 312.6037,771.75438 308.0075,781.12355 312.42692,791.02304 319.49799,783.42165 322.14964,773.69893 312.6037,771.75438 z"
     id="Barrow-in-Furness" />
  <path
     class="cumbria l"
     d="M 315.78568,745.59143 L 289.97628,728.09054 L 285.73364,739.93458 L 305.0023,774.58281 L 311.36626,767.15819 L 315.78568,745.59143 z"
     id="Copeland" />
  <path
     class="cumbria l"
     d="M 289.97628,728.09054 304.47197,696.80106 311.36626,696.44751 327.98327,711.82708 325.15484,740.81846 315.78568,745.59143 z"
     id="Allerdale" />
  <path
     class="cumbria l"
     d="M 318.08377,694.67974 323.56385,692.02809 323.56385,687.07835 336.64533,674.17365 346.54482,666.74903 358.91919,677.17885 353.26234,703.51858 327.98327,711.82708 311.36626,696.44751 z"
     id="Carlisle" />
  <path
     class="cumbria l"
     d="M 325.15484,740.81846 366.32112,757.3125 379.32112,745.9375 369.4374,716.86522 370.2329,709.61737 353.26234,703.51858 327.98327,711.82708 z"
     id="Eden" />
  <path
     class="newc l"
     d="M 430.86731,702.01598 429.89503,692.82359 423.3543,694.41458 420.08393,694.14941 417.16711,699.80627 420.79103,700.60176 420.87942,704.40246 425.21045,708.73349 z"
     id="Sunderland" />
  <path
     class="newc l"
     d="M 429.89503,692.82359 428.92276,689.02289 427.24338,685.84091 424.0614,688.66934 420.96781,688.13901 419.20004,690.70227 420.08393,694.14941 423.3543,694.41458 z"
     id="South Tyneside" />
  <path
     class="newc l"
     d="M 420.08393,694.14941 403.90886,688.71353 400.63849,697.33139 408.59344,696.80106 417.16711,699.80627 z"
     id="Gateshead" />
  <path
     class="newc l"
     d="M 413.78625,686.00664 412.65931,679.38856 421.76331,681.02374 423.61946,678.41629 427.33177,684.91283 424.90109,686.01769 424.14979,687.78545 420.96781,688.13901 419.20004,690.70227 z"
     id="North Tyneside" />
  <path
     class="newc l"
     d="M 412.65931,679.38856 408.77022,678.54887 403.90886,688.71353 420.08393,694.14941 419.20004,690.70227 413.78625,686.00664 z"
     id="Newcastle upon Tyne" />
  <path
     class="northumb l"
     d="M 419.90715,664.05318 412.07112,624.1875 387.07112,598.6875 372.32112,619.6875 366.87414,645.53582 346.54482,666.74903 358.91919,677.17885 353.26234,703.51858 370.2329,709.61737 395.15841,705.02118 400.63849,697.33139 403.90886,688.71353 408.77022,678.54887 412.65931,679.38856 421.76331,681.02374 423.61946,678.41629 420.57006,671.25683 z"
     id="Northumberland" />
  <path
     class="scot1 l"
     d="M 387.07112,598.6875 367.82112,582.9375 337.07112,596.1875 321.82112,606.9375 304.47197,596.03835 301.19612,608.42187 301.46174,633.875 336.64533,674.17365 346.54482,666.74903 366.87414,645.53582 372.32112,619.6875 z"
     id="Scottish Borders" />
  <path
     class="scot1 l"
     d="M 301.19612,608.42187 304.47197,596.03835 295.27958,599.92744 282.55166,599.48549 269.81269,600.91075 260.63135,594.44736 251.35057,598.86677 251.08541,610.00371 251.43896,623.96907 266.64175,622.55485 269.69677,644.99024 290.1105,647.40137 301.46174,633.875 z"
     id="South Lanarkshire" />
  <path
     class="scot1 l"
     d="M 234.62307,661.79928 190.27422,686.90157 206.89123,723.67112 294.92603,693.97264 323.56385,687.07835 336.64533,674.17365 301.46174,633.875 290.1105,647.40137 269.69677,644.99024 z"
     id="Dumfries and Galloway" />
  <path
     class="scot1 l"
     d="M 190.27422,686.90157 226.69022,629.62592 222.09403,615.83734 226.867,610.35726 239.41814,628.56526 234.62307,661.79928 z"
     id="South Ayrshire" />
  <path
     class="scot1 l"
     d="M 266.64175,622.55485 251.43896,623.96907 251.08541,610.00371 233.93807,600.81132 226.867,610.35726 239.41814,628.56526 234.62307,661.79928 269.69677,644.99024 z"
     id="East Ayrshire" />
  <path
     class="scot1 l"
     d="M 233.93807,600.81132 220.32626,590.38149 212.19453,587.55307 211.04549,605.31913 188.50646,603.9933 180.28634,622.27668 197.88514,633.91666 214.73959,612.502 222.09403,615.83734 226.867,610.35726 233.93807,600.81132 z"
     id="North Ayrshire" />
  <path
     class="glasgow l"
     d="M 212.19453,587.55307 L 214.31585,577.83035 L 229.1651,581.89621 L 228.28121,591.79571 L 220.32626,590.38149 L 212.19453,587.55307 z"
     id="Inverclyde" />
  <path
     class="glasgow l"
     d="M 228.28121,591.79571 229.1651,581.89621 236.69612,581.5 243.43981,586.62499 243.44612,594.5625 233.93807,600.81132 220.32626,590.38149 z"
     id="Renfrewshire" />
  <path
     class="glasgow l"
     d="M 251.35057,598.86677 251.08541,610.00371 233.93807,600.81132 243.44612,594.5625 z"
     id="East Renfrewshire" />
  <path
     class="glasgow l"
     d="M 255.50482,585.65272 262.26653,588.26017 260.63135,594.44736 251.35057,598.86677 243.44612,594.5625 243.43981,586.62499 244.10273,582.95687 z"
     id="Glasgow City" />
  <path
     class="glasgow l"
     d="M 244.10273,582.95687 242.60012,577.47679 250.55508,578.75843 249.22925,571.55478 257.58195,571.86414 260.41038,583.75237 255.50482,585.65272 z"
     id="East Dunbartonshire" />
  <path
     class="glasgow l"
     d="M 229.1651,581.89621 230.32112,578.9375 227.63362,573.5625 231.38362,566.125 238.63362,567.875 242.60012,577.47679 244.10273,582.95687 243.43981,586.62499 236.69612,581.5 229.1651,581.89621 z"
     id="West Dunbartonshire" />
  <path
     class="edinb l"
     d="M 367.82112,582.9375 L 346.19612,568.8125 L 323.82112,582.5625 L 337.07112,596.1875 L 367.82112,582.9375 z"
     id="East Lothian" />
  <path
     class="edinb l"
     d="M 323.82112,582.5625 L 321.19612,586.3125 L 315.44612,589.4375 L 304.47197,596.03835 L 321.82112,606.9375 L 337.07112,596.1875 L 323.82112,582.5625 z"
     id="Midlothian" />
  <path
     class="edinb l"
     d="M 312.6037,578.40487 302.12968,576.76969 300.58288,580.08425 303.98583,587.46468 304.47197,596.03835 321.19612,586.3125 323.82112,582.5625 319.3654,579.46553 317.46506,577.47679 z"
     id="City of Edinburgh" />
  <path
     class="edinb l"
     d="M 300.58288,580.08425 282.9936,592.41443 282.55166,599.48549 295.27958,599.92744 304.47197,596.03835 303.98583,587.46468 300.58288,580.08425 z"
     id="West Lothian" />
  <path
     class="scot2 l"
     d="M 285.64525,571.81994 279.72323,564.30693 265.93465,572.17349 274.68509,580.21683 273.80121,582.7801 282.9936,592.41443 300.58288,580.08425 302.12968,576.76969 z"
     id="Falkirk" />
  <path
     class="glasgow l"
     d="M 265.93465,572.17349 257.58195,571.86414 260.41038,583.75237 255.50482,585.65272 262.26653,588.26017 260.63135,594.44736 269.81269,600.91075 282.55166,599.48549 282.9936,592.41443 273.80121,582.7801 274.68509,580.21683 z"
     id="North Lanarkshire" />
  <path
     class="scot2 l"
     d="M 279.72323,564.30693 L 253.56028,536.99493 L 263.283,524.09023 L 245.7821,514.89784 L 228.98832,522.14569 L 218.38172,532.57551 L 231.38362,566.125 L 238.63362,567.875 L 242.60012,577.47679 L 250.55508,578.75843 L 249.22925,571.55478 L 265.93465,572.17349 L 279.72323,564.30693 z"
     id="Stirling" />
  <path
     class="scot2 l"
     d="M 330.82112,553.5625 343.53962,555.37971 354.85333,546.54087 343.71639,528.1561 311.89659,538.23237 311.36626,550.78351 309.77527,558.20813 301.82032,560.68301 283.96587,567.40052 305.82112,573.8125 321.57112,563.8125 z"
     id="Fife" />
  <path
     class="scot2 l"
     d="M 311.89659,538.23237 326.56905,528.1561 318.79088,517.54949 307.12362,480.77994 281.491,473.17854 238.71104,486.61357 231.10964,506.94289 228.98832,522.14569 245.7821,514.89784 263.283,524.09023 253.56028,536.99493 279.72323,564.30693 279.49778,556.99493 289.16407,560.21426 283.96587,567.40052 309.77527,558.20813 311.36626,550.78351 z"
     id="Perth and Kinross" />
  <path
     class="scot2 l"
     d="M 318.79088,517.54949 331.69558,515.2514 349.0197,521.79214 331.34203,526.91866 326.56905,528.1561 z"
     id="Dundee City" />
  <path
     class="scot2 l"
     d="M 349.0197,521.79214 L 364.39927,494.7453 L 335.93822,468.9359 L 307.12362,480.77994 L 318.79088,517.54949 L 331.69558,515.2514 L 349.0197,521.79214 z"
     id="Angus" />
  <path
     class="scot3 l"
     d="M 364.39927,494.7453 384.72859,459.92029 370.58645,459.03641 373.94521,451.96534 371.47034,445.60138 385.82112,447.9375 397.69612,425.1875 402.40626,403.52853 385.96602,390.97738 342.65573,391.68449 349.82112,411.4375 331.94612,412.4375 330.8117,437.82321 306.23973,456.0312 289.0924,457.09187 281.491,473.17854 307.12362,480.77994 335.93822,468.9359 z"
     id="Aberdeenshire" />
  <path
     class="scot3 l"
     d="M 373.94521,451.96534 371.47034,445.60138 385.82112,447.9375 388.57112,452.3125 384.72859,459.92029 370.58645,459.03641 z"
     id="Aberdeen City" />
  <path
     class="scot3 l"
     d="M 342.65573,391.68449 L 309.77527,387.97218 L 286.44074,397.34134 L 303.41131,439.94453 L 289.0924,457.09187 L 306.23973,456.0312 L 330.8117,437.82321 L 331.94612,412.4375 L 349.82112,411.4375 L 342.65573,391.68449 z"
     id="Moray" />
  <path
     class="scot3 l"
     d="M 249.07112,412.4375 271.32112,394.1875 286.08719,371.8855 270.17729,372.94616 329.92781,307.18523 331.34203,283.49715 219.2656,287.38624 196.28463,325.57 201.57112,340.6875 166.82112,372.1875 174.82112,433.4375 147.07112,423.4375 135.07112,382.1875 117.07112,396.9375 110.32112,416.6875 158.32112,462.6875 151.07112,495.9375 168.07112,516.6875 203.32112,482.6875 189.82112,505.1875 204.07112,515.4375 231.10964,506.94289 238.71104,486.61357 281.491,473.17854 289.0924,457.09187 303.41131,439.94453 286.44074,397.34134 z"
     id="Highland" />
  <path
     class="scot3 l"
     d="M 229.1651,581.89621 L 215.02296,566.69342 L 202.64859,600.28099 L 185.32447,581.18911 L 208.30545,545.83377 L 177.5463,571.99672 L 169.41457,643.76806 L 149.61558,648.0107 L 170.12168,561.03656 L 126.63461,617.25155 L 106.12852,592.50281 L 166.23259,537.70204 L 115.3209,532.04518 L 135.47345,492.09365 L 167.29325,522.49924 L 189.82112,505.1875 L 204.07112,515.4375 L 231.10964,506.94289 L 228.98832,522.14569 L 218.38172,532.57551 L 231.38362,566.125 L 227.63362,573.5625 L 230.32112,578.9375 L 229.1651,581.89621 z"
     id="Argyll and Bute" />
  <path
     class="scot3 l"
     d="M 146.4336,295.87152 94.107702,329.45909 90.925722,367.64286 65.469877,387.08829 66.884091,447.54592 50.267082,475.47664 76.783582,446.83882 84.915312,404.41241 108.60339,369.05707 136.18055,351.3794 152.09046,323.80224 146.4336,295.87152 z"
     id="Eilean Siar" />
  <path
     class="scot3 l"
     d="M 447.41427,9.9619949 394.28927,58.211995 417.41427,116.58699 437.91427,87.586995 z"
     id="Shetland Islands" />
  <path
     d="M 253.80536,1133.8283 274.58661,1131.0158 279.54645,1122.8329 315.07112,1133.8125 288.32112,1149.4375 281.07112,1150.8125 267.38319,1151.0805 z"
     id="Mid Devon"
     class="devon l" />
  <path
     d="M 425.75862,964.4375 425.59936,954.32935 434.93317,959.77408 443.84271,971.44134 441.43855,986.432 429.40445,981.1875 425.90445,974.02083 427.69612,970.375 z"
     id="Rugby"
     class="warks l" />
  <path
     d="M 448.97737,787.1875 459.07112,796.5625 458.00253,811.35236 439.72737,802.75 437.94612,792.46875 z"
     id="York"
     class="nyorks l" />
  <path
     d="M 572.98568,916.79061 608.07112,922.0875 625.37112,934.3875 632.57112,943.7875 626.27112,948.7875 611.57112,941.1875 615.57112,937.4875 603.17112,932.5875 599.67112,936.9875 573.64859,923.19876 z"
     id="Broadland"
     class="norfolk l" />
  <path
     d="M 434.93317,996.19008 462.81665,986.01173 463.06915,989.48035 472.24781,989.49988 480.04658,992.79596 464.63165,1000.5741 468.59145,1005.9482 466.27112,1010.2875 455.27112,1005.8875 449.47112,1012.4875 441.57997,1016.2719 z"
     id="South Northamptonshire"
     class="northants l" />
  <path
     d="M 324.80129,813.91562 326.83422,808.70071 348.31258,807.37488 348.42998,813.32896 338.4134,815.87131 330.59072,813.45159 z"
     id="Wyre"
     class="lancs l" />
  <path
     class="dorset l"
     d="M 371.69612,1150.3125 386.96496,1149.4073 390.25862,1152.6875 383.57112,1158.0625 394.19612,1160.0625 390.32112,1170.8125 361.32112,1164.0625 z"
     id="Purbeck" />
  <path
     class="dorset l"
     d="M 361.32112,1164.0625 358.07112,1177.4375 354.57112,1166.8125 354.23954,1157.6787 z"
     id="Weymouth and Portland" />
  <path
     class="essex l"
     d="M 569.16487,1058.4688 583.75001,1059.5288 579.94612,1063.4375 573.16487,1062.2812 568.89924,1062.0625 z"
     id="Southend-on-Sea" />
  <path
     d="M 86.859238,1212.2456 76.659188,1208.8754 72.583973,1218.6598 82.835325,1222.238 z"
     id="Isles of Scilly"
     class="cornwall l" />
  <path
     class="london l"
     d="M 509.57713,1068.0321 511.618,1067.125 513.24217,1069.2402 514.19221,1069.9296 512.91097,1071.3789 511.44529,1070.0703 510.743,1069.1094 509.84229,1069.0928 z"
     id="Hammersmith and Fulham" />
  <path
     class="london l"
     d="M 518.83675,1065.5938 520.60237,1065.4375 521.02425,1066.9219 518.60237,1066.5469 z"
     id="City of London" />
  <path
     class="wglam l"
     d="M 264.46151,1047.2314 259.23779,1038.1875 254.07112,1037.3542 249.08194,1046.4064 249.49442,1050.3545 232.52385,1054.656 236.94327,1062.4342 255.56375,1060.5486 253.44243,1057.838 258.80465,1055.5988 261.45631,1054.5971 z"
     id="Swansea" />
  <path
     class="wglam l"
     d="M 282.55166,1044.8744 283.78909,1052.4169 277.36621,1051.8276 274.77348,1056.6006 276.95373,1061.1968 269.76481,1064.2609 261.45631,1054.5971 264.46151,1047.2314 259.23779,1038.1875 267.73779,1036.1875 282.07112,1039.6875 z"
     id="Neath Port Talbot" />
  <path
     class="dyfed l"
     d="M 208.23779,998.85417 162.57112,1021.6875 178.73779,1027.3542 167.90445,1039.8542 194.40445,1041.5208 177.73779,1046.1875 189.57112,1055.6875 229.23779,1036.1875 217.40445,1007.0208 z"
     id="Pembrokeshire" />
  <path
     class="northants l"
     d="M 483.90147,956.83774 479.76373,951.00595 469.86424,958.14773 478.08219,962.53949 z"
     id="Corby" />
  <path
     class="leics l"
     d="M 455.08129,937.69908 446.50529,944.10528 450.25529,951.9959 z"
     id="Oadby and Wigston" />
  <path
     class="nyorks l"
     d="M 434.50862,753.75 449.82112,750.3125 451.32112,741.1875 438.44612,740.4375 431.69612,745.4375 425.94612,742.3125 416.82112,741.4375 407.94612,770.53125 437.94612,792.46875 448.97737,787.1875 436.22737,770.53125 z"
     id="Hambleton" />
  <path
     class="lancs l"
     d="M 356.40012,836.89659 353.44612,823.0625 359.82112,820.0625 361.75862,826.75 368.94612,829.625 369.94612,832.0625 365.32735,836.05691 359.09597,837.86887 z"
     id="Blackburn with Darwen" />
  <path
     class="durcle l"
     d="M 442.75862,727.6875 442.00862,719.25 436.75862,716.5625 428.75862,725.6875 442.75862,727.6875 z"
     id="Hartlepool" />
  <path
     class="durcle l"
     d="M 440.82112,731.9375 445.82112,726.9375 454.32112,731.3125 466.94612,734.3125 451.32112,741.1875 438.44612,740.4375 441.82112,735.8125 z"
     id="Redcar and Cleveland" />
  <path
     class="durcle l"
     d="M 414.19612,738.9375 417.92716,732.47779 427.38243,731.04299 431.69612,745.4375 425.94612,742.3125 416.82112,741.4375 z"
     id="Darlington" />
  <path
     class="durcle l"
     d="M 428.75862,725.6875 427.38243,731.04299 431.69612,745.4375 438.44612,740.4375 435.19612,738.0625 435.44612,733.8125 440.82112,731.9375 442.75862,727.6875 z"
     id="Stockton-on-Tees" />
  <path
     class="durcle l"
     d="M 435.19612,738.0625 435.44612,733.8125 440.82112,731.9375 441.82112,735.8125 438.44612,740.4375 z"
     id="Middlesbrough" />
  <path
     class="scot3 l"
     d="M 367.41427,201.58698 323.66427,199.33698 301.91427,251.08698 329.91427,270.08698 z"
     id="Orkney Islands" />
  <path
     class="scot2 l"
     d="M 289.16407,560.21426 283.96587,567.40052 279.72323,564.30693 279.49778,556.99493 z"
     id="Clackmannanshire" />
</svg>
